<svg xmlns="http://www.w3.org/2000/svg" viewBox="0 0 38 29"><defs><style>.cls-1{fill:none;stroke:#000;stroke-miterlimit:10;}</style></defs><g id="Слой_2" data-name="Слой 2"><rect class="cls-1" x="0.5" y="13.5" width="37" height="15" rx="2.15"/><path class="cls-1" d="M6.5,13.5v-3a1,1,0,0,1,1-1H30.47a1,1,0,0,1,1,1v3.21"/><rect class="cls-1" x="13.5" y="20.2" width="11" height="4.3" rx="2.15"/><path class="cls-1" d="M26.5,13.2h0a4.29,4.29,0,0,1-4.3,4.3H15.8a4.29,4.29,0,0,1-4.3-4.3h0"/><path class="cls-1" d="M1.08,14.19,7,3.39a1.71,1.71,0,0,1,1.5-.89H11"/><path class="cls-1" d="M36.92,14.19,31,3.39a1.71,1.71,0,0,0-1.5-.89H27"/><path class="cls-1" d="M8.5,9.5v-3a1,1,0,0,1,1-1H28.47a1,1,0,0,1,1,1v3"/><path class="cls-1" d="M10.5,5.5v-4a1,1,0,0,1,1-1H26.47a1,1,0,0,1,1,1v4"/></g></svg>