<?xml version="1.0" encoding="utf-8"?>
<!-- Generator: Adobe Illustrator 24.1.1, SVG Export Plug-In . SVG Version: 6.00 Build 0)  -->
<svg version="1.1" id="Layer_1" xmlns="http://www.w3.org/2000/svg" xmlns:xlink="http://www.w3.org/1999/xlink" x="0px" y="0px"
	 viewBox="0 0 1494.6 152.2" style="enable-background:new 0 0 1494.6 152.2;" xml:space="preserve">
<style type="text/css">
	.st0{fill:#3F5070;}
	.st1{fill:#FAA642;}
	.st2{fill:#F16047;}
	.st3{fill:#CB2D5F;}
	.st4{fill:#242528;}
</style>
<g>
	<g>
		<path class="st0" d="M67.7,111.5c-0.7-2.9-1.6-5.6-2.9-8.2c-3.2-6.3-7.9-11.6-13.2-16.2c-5.2-4.5-10.7-8.6-16.1-12.9
			c-2.2-1.8-4.5-3.5-7.1-5.5c0.1,2.1,0.2,3.8,0.3,5.5v0c0,0.1,0,0.1,0,0.2c0,0,0,0,0,0c0.1,0.8,0.3,3.6,0.4,4c0,0,0,0,0,0
			c0.2,0.9,0.5,1.7,0.7,2.5c1.2,3.9,3.5,7.2,6.2,10.2c3.6,4,7.3,7.8,10.8,11.8c1.2,1.4,2.3,2.9,3.1,4.6c1.2,2.5-0.6,5.5-3.4,6.1
			c-2.4,0.5-4.3-0.5-5.9-2c-6.1-5.9-11.9-12.1-16.8-19c-6.2-8.9-10.1-18.5-9.8-29.5c0.2-8.2,0.3-16.4-1.2-24.5
			c-0.7-3.9-2.2-7.5-4.9-10.4c-2.2-2.4-4.8-4.3-8-6v1.5c0,15.5,0,30.9,0,46.4c0,3.4,0.4,6.8,0.8,10.1c0.6,4.9,2.3,9.5,4.4,13.9
			c3.4,7.3,8.3,13.7,13.9,19.5c7.3,7.6,15.5,14,24,20.2c7.1,5.1,14.3,10.2,21.4,15.3c1.2,0.9,2.5,1.8,3.9,2.9v-1.8
			c0-8.8,0.1-17.6,0-26.4C68.3,119.9,68.8,115.7,67.7,111.5"/>
	</g>
	<g>
		<path class="st0" d="M142.6,23.8v-1.5c-3.2,1.7-5.8,3.6-8,6c-2.8,3-4.2,6.5-4.9,10.4c-1.5,8.1-1.4,16.3-1.2,24.5
			c0.3,11-3.5,20.6-9.8,29.5c-4.9,6.9-10.7,13.1-16.8,19c-1.6,1.6-3.5,2.5-5.9,2c-2.8-0.6-4.6-3.5-3.4-6.1c0.8-1.6,1.8-3.2,3.1-4.6
			c3.5-4,7.2-7.9,10.8-11.8c2.7-3,5-6.3,6.2-10.2c0.2-0.8,0.6-1.6,0.8-2.5c0,0,0,0,0,0c0.1-0.4,0.4-3.3,0.4-4c0,0,0,0,0,0
			c0-0.1,0-0.1,0-0.2v0c0.1-1.7,0.2-3.4,0.3-5.5c-2.6,2-4.9,3.7-7.1,5.4c-5.4,4.3-10.9,8.4-16.1,12.9c-5.4,4.6-10,9.8-13.2,16.2
			c-1.3,2.6-2.2,5.4-2.9,8.2c-1.1,4.2-0.7,8.4-0.7,12.6c-0.1,8.8,0,17.6,0,26.4v1.8c1.4-1,2.7-2,3.9-2.9
			c7.1-5.1,14.3-10.2,21.4-15.3c8.5-6.1,16.7-12.6,24-20.2c5.6-5.8,10.4-12.2,13.9-19.5c2.1-4.4,3.7-9.1,4.4-13.9
			c0.4-3.4,0.8-6.8,0.8-10.1C142.6,54.7,142.6,39.3,142.6,23.8"/>
	</g>
	<g>
		<path class="st1" d="M87.2,15.6c0,8.6-7.1,15.6-15.9,15.6c-8.8,0-15.9-7-15.9-15.6C55.4,7,62.5,0,71.3,0C80.1,0,87.2,7,87.2,15.6"
			/>
	</g>
	<g>
		<path class="st2" d="M139.4,15.8c-2.3,2.2-4.6,4.2-6.8,6.4c-12.1,11.5-24.1,23-36.2,34.5C88.2,64.4,80,72.2,71.9,80
			c-0.2,0.2-0.4,0.3-0.6,0.4c-0.2-0.1-0.4-0.2-0.6-0.4c-8.1-7.8-16.3-15.6-24.5-23.4c-0.9-0.8-1.7-1.7-2.6-2.5
			c9,6.7,20.5-0.8,27-6.2l0.1-0.1l0.6-0.5l0.4-0.4l0.2-0.1l3.5-3.3l0.6-0.6c0.3-0.3,0.6-0.6,0.9-0.9c9.4-9,18.8-17.9,28.3-26.9
			c3.5-3.4,7.6-6,12.5-7.1c3.6-0.8,7.3-0.5,10.8,0.7C132.5,10.2,136.1,12.6,139.4,15.8"/>
	</g>
	<g>
		<path class="st3" d="M71.7,47l-0.4,0.4l-0.6,0.5l-0.1,0.1c-6.5,5.5-18.1,12.9-27,6.2c0,0,0,0,0,0c-1.2-1.2-2.4-2.3-3.6-3.5
			c0,0,0,0,0,0c-10-9.5-19.9-19-29.9-28.5c-2.2-2.1-4.5-4.2-6.8-6.4c3.2-3.2,6.8-5.6,11-7.1C17.7,7.5,21.3,7.2,25,8
			c4.9,1.1,8.9,3.8,12.5,7.1c9.4,8.9,18.7,17.8,28.1,26.7h0l3,2.9l2,1.9c0.3,0.3,0.5,0.4,0.7,0.5C71.4,47.1,71.5,47,71.7,47"/>
	</g>
</g>
<g>
	<path class="st4" d="M179,34.4v-2.8h2.3v2.8c6.6,0,11,3.8,11,9.7c0,6-4.4,9.8-11,9.8v3H179v-3c-6.6,0-11-3.8-11-9.8
		C168,38.1,172.4,34.4,179,34.4z M179,51.9V36.4c-5.3,0-8.6,2.8-8.6,7.7C170.4,49.1,173.7,51.9,179,51.9z M189.9,44.1
		c0-4.9-3.3-7.7-8.6-7.7v15.5C186.6,51.9,189.9,49.1,189.9,44.1z"/>
	<path class="st4" d="M198.6,35.2h-2.2v-2.1h13.4c1.4,0,2,0.6,2,2v2.3h-2.2v-1.6c0-0.5-0.3-0.7-0.7-0.7h-8v8.5h8.8v2.1h-8.8v7.9
		c0,0.5,0.3,0.7,0.7,0.7h8.2c0.5,0,0.7-0.2,0.7-0.7v-1.6h2.2v2.3c0,1.4-0.6,2-2,2h-10.1c-1.4,0-2-0.6-2-2V35.2z"/>
	<path class="st4" d="M217.8,54.4h0.6c3.6-4.7,3.9-11.3,3.9-16.8v-2.5h-2.1v-2.1h12.9c1.4,0,2,0.6,2,2v19.3h0.9c1.4,0,2,0.6,2,2v4.7
		h-2.2v-3.9c0-0.5-0.2-0.7-0.7-0.7h-16.5c-0.5,0-0.7,0.2-0.7,0.7v3.9h-2.2v-4.7C215.8,55,216.3,54.4,217.8,54.4z M232.8,54.4V35.9
		c0-0.5-0.3-0.7-0.7-0.7h-7.6v2.6c0,5.7-0.5,12.2-3.6,16.7H232.8z"/>
	<path class="st4" d="M243.9,35.2h-2.2v-2.1h13.4c1.4,0,2,0.6,2,2v2.3H255v-1.6c0-0.5-0.3-0.7-0.7-0.7h-8v8.5h8.8v2.1h-8.8v7.9
		c0,0.5,0.3,0.7,0.7,0.7h8.2c0.5,0,0.7-0.2,0.7-0.7v-1.6h2.2v2.3c0,1.4-0.6,2-2,2h-10.1c-1.4,0-2-0.6-2-2V35.2z"/>
	<path class="st4" d="M264.2,35.2H262v-2.1h9.9c4.2,0,7.2,2.7,7.2,7c0,4.4-3.1,7.1-7.2,7.1h-5.4v9.2h-2.3V35.2z M271.6,45.3
		c3.1,0,5.1-1.9,5.1-5.1c0-3.2-2-5-5.1-5h-5.2v10.1H271.6z"/>
	<path class="st4" d="M280.2,54.4h0.4c0.6,0,1-0.1,1.2-0.7l7.6-20.6h2.5l7.6,20.6c0.2,0.6,0.6,0.7,1.2,0.7h0.4v2.1h-1.1
		c-1.7,0-2.2-0.3-2.7-1.9l-2.1-5.5h-9.3l-2,5.5c-0.6,1.6-1.1,1.9-2.8,1.9h-1.1V54.4z M294.8,47l-3.1-8.3c-0.4-1.1-0.9-3-0.9-3h-0.1
		c0,0-0.5,1.9-0.9,3l-3.1,8.3H294.8z"/>
	<path class="st4" d="M303.6,54.5c4.4-0.6,5.6-6.8,5.6-16.8v-2.5H307v-2.1h13c1.4,0,2,0.6,2,2v18.6c0,0.5,0.3,0.7,0.7,0.7h1.4v2.1
		h-2.5c-1.4,0-2-0.6-2-2V35.9c0-0.5-0.3-0.7-0.7-0.7h-7.5v2.5c0,11.1-1.4,18.4-7.8,18.9V54.5z"/>
	<path class="st4" d="M330.5,35.9c0-0.5-0.3-0.7-0.7-0.7h-1.4v-2.1h2.5c1.4,0,2,0.6,2,2v7.4h5c4.1,0,7.3,2.3,7.3,6.9
		c0,4.6-3.2,7.1-7.5,7.1h-5c-1.4,0-2-0.6-2-2V35.9z M333.6,54.4h4.1c3.1,0,5.1-1.8,5.1-5c0-3.2-1.9-4.8-5.1-4.8h-4.8v9.1
		C332.9,54.2,333.1,54.4,333.6,54.4z"/>
	<path class="st4" d="M350.8,35.9c0-0.5-0.3-0.7-0.7-0.7h-1.4v-2.1h2.5c1.4,0,2,0.6,2,2v8.6h13.4v-8.6c0-1.4,0.6-2,2-2h2.5v2.1h-1.4
		c-0.5,0-0.7,0.2-0.7,0.7v20.6h-2.3V45.8h-13.4v10.7h-2.3V35.9z"/>
	<path class="st4" d="M387.1,32.7c6.6,0,11.9,5.2,11.9,11.9c0,6.8-5.3,12.2-11.9,12.2c-6.6,0-11.9-5.4-11.9-12.2
		C375.2,38,380.4,32.7,387.1,32.7z M387.1,54.7c5.2,0,9.5-4.4,9.5-10c0-5.5-4.3-9.7-9.5-9.7c-5.3,0-9.5,4.2-9.5,9.7
		C377.6,50.3,381.8,54.7,387.1,54.7z"/>
	<path class="st4" d="M405.3,35.2h-2.2v-2.1h13.4c1.4,0,2,0.6,2,2v2.3h-2.2v-1.6c0-0.5-0.3-0.7-0.7-0.7h-8v8.5h8.8v2.1h-8.8v7.9
		c0,0.5,0.3,0.7,0.7,0.7h8.2c0.5,0,0.7-0.2,0.7-0.7v-1.6h2.2v2.3c0,1.4-0.6,2-2,2h-10.1c-1.4,0-2-0.6-2-2V35.2z"/>
	<path class="st4" d="M436.2,35.2H434v-2.1h12.8c1.4,0,2,0.6,2,2v2.3h-2.2v-1.6c0-0.5-0.3-0.7-0.7-0.7h-7.5v21.3h-2.3V35.2z"/>
	<path class="st4" d="M463.6,32.7c6.6,0,11.9,5.2,11.9,11.9c0,6.8-5.3,12.2-11.9,12.2c-6.6,0-11.9-5.4-11.9-12.2
		C451.7,38,456.9,32.7,463.6,32.7z M463.6,54.7c5.2,0,9.5-4.4,9.5-10c0-5.5-4.3-9.7-9.5-9.7c-5.3,0-9.5,4.2-9.5,9.7
		C454.1,50.3,458.3,54.7,463.6,54.7z"/>
	<path class="st4" d="M491.2,32.7c3.3,0,8.7,1.4,8.7,5v1.9h-2.2v-1.3c0-2.2-3.8-3.4-6.5-3.4c-5.2,0-9.2,4.1-9.2,9.7
		c0,5.6,4,10.1,9.3,10.1c4.8,0,7.6-3.3,7.6-3.3l1.3,1.7c0,0-3.2,3.8-9,3.8c-6.8,0-11.7-5.5-11.7-12.3
		C479.7,37.9,484.6,32.7,491.2,32.7z"/>
	<path class="st4" d="M507.2,53.7c0.7,0.6,1.6,1.1,2.6,1.1c1.6,0,2.3-1.2,3-3.1l-7.6-15.7c-0.3-0.5-0.6-0.7-1.1-0.7h-0.6v-2.1h1.3
		c1.5,0,2,0.4,2.7,1.9l5.3,11.2c0.7,1.6,1.3,3,1.3,3h0.1c0,0,0.4-1.2,1-3l4.1-11.2c0.6-1.6,1.1-1.9,2.8-1.9h1v2.1h-0.4
		c-0.6,0-0.9,0.1-1.2,0.7l-6.7,17.2c-0.8,2.1-2.2,3.8-4.7,3.8c-2.1,0-3.7-1.2-3.9-1.4L507.2,53.7z"/>
	<path class="st4" d="M525.6,54.4h0.6c3.6-4.7,3.9-11.3,3.9-16.8v-2.5h-2.1v-2.1H541c1.4,0,2,0.6,2,2v19.3h0.9c1.4,0,2,0.6,2,2v4.7
		h-2.2v-3.9c0-0.5-0.2-0.7-0.7-0.7h-16.5c-0.5,0-0.7,0.2-0.7,0.7v3.9h-2.2v-4.7C523.6,55,524.2,54.4,525.6,54.4z M540.7,54.4V35.9
		c0-0.5-0.3-0.7-0.7-0.7h-7.6v2.6c0,5.7-0.5,12.2-3.6,16.7H540.7z"/>
	<path class="st4" d="M548.8,54.4h0.4c0.6,0,1-0.1,1.2-0.7l7.6-20.6h2.5l7.6,20.6c0.2,0.6,0.6,0.7,1.2,0.7h0.4v2.1h-1.1
		c-1.7,0-2.2-0.3-2.7-1.9l-2.1-5.5h-9.3l-2,5.5c-0.6,1.6-1.1,1.9-2.8,1.9h-1.1V54.4z M563.3,47l-3.1-8.3c-0.4-1.1-0.9-3-0.9-3h-0.1
		c0,0-0.5,1.9-0.9,3l-3.1,8.3H563.3z"/>
	<path class="st4" d="M575,35.2h-2.2v-2.1h9.9c4.2,0,7.2,2.7,7.2,7c0,4.4-3.1,7.1-7.2,7.1h-5.4v9.2H575V35.2z M582.5,45.3
		c3.1,0,5.1-1.9,5.1-5.1c0-3.2-2-5-5.1-5h-5.2v10.1H582.5z"/>
	<path class="st4" d="M605.2,32.7c3.3,0,8.7,1.4,8.7,5v1.9h-2.2v-1.3c0-2.2-3.8-3.4-6.5-3.4c-5.2,0-9.2,4.1-9.2,9.7
		c0,5.6,4,10.1,9.3,10.1c4.8,0,7.6-3.3,7.6-3.3l1.3,1.7c0,0-3.2,3.8-9,3.8c-6.8,0-11.7-5.5-11.7-12.3
		C593.6,37.9,598.6,32.7,605.2,32.7z"/>
	<path class="st4" d="M626.1,35.2h-5.8c-0.5,0-0.7,0.2-0.7,0.7v1.6h-2.1V35c0-1.4,0.5-1.9,1.9-1.9h15.8c1.4,0,1.9,0.5,1.9,1.9v2.5
		H635v-1.6c0-0.5-0.2-0.7-0.7-0.7h-5.8v21.3h-2.3V35.2z"/>
	<path class="st4" d="M642.6,35.2h-2.2v-2.1h10c3.7,0,6.3,2.2,6.3,5.9c0,2.6-1.3,4.3-3,5.1v0.1c2.4,0.7,3.9,3,3.9,5.8
		c0,4.2-3.1,6.5-7,6.5h-6.1c-1.4,0-2-0.6-2-2V35.2z M650.5,43.3c2.4,0,4-1.7,4-4.1c0-2.4-1.5-4-4-4h-5.5v8.1H650.5z M645.7,54.4h5.1
		c2.8,0,4.6-1.8,4.6-4.6s-1.9-4.6-4.6-4.6h-5.8v8.4C644.9,54.2,645.2,54.4,645.7,54.4z"/>
	<path class="st4" d="M664.2,35.2h-2.2v-2.1h13.4c1.4,0,2,0.6,2,2v2.3h-2.2v-1.6c0-0.5-0.3-0.7-0.7-0.7h-8v8.5h8.8v2.1h-8.8v7.9
		c0,0.5,0.3,0.7,0.7,0.7h8.2c0.5,0,0.7-0.2,0.7-0.7v-1.6h2.2v2.3c0,1.4-0.6,2-2,2h-10.1c-1.4,0-2-0.6-2-2V35.2z"/>
	<path class="st4" d="M684.5,35.9c0-0.5-0.3-0.7-0.7-0.7h-1.4v-2.1h2.5c1.4,0,2,0.6,2,2v8.6h13.4v-8.6c0-1.4,0.6-2,2-2h2.5v2.1h-1.4
		c-0.5,0-0.7,0.2-0.7,0.7v20.6h-2.3V45.8h-13.4v10.7h-2.3V35.9z"/>
	<path class="st4" d="M711.1,35.9c0-0.5-0.3-0.7-0.7-0.7h-1.4v-2.1h2.5c1.4,0,2,0.6,2,2v8.6h13.4v-8.6c0-1.4,0.6-2,2-2h2.5v2.1h-1.4
		c-0.5,0-0.7,0.2-0.7,0.7v20.6h-2.3V45.8h-13.4v10.7h-2.3V35.9z"/>
	<path class="st4" d="M747.4,32.7c6.6,0,11.9,5.2,11.9,11.9c0,6.8-5.3,12.2-11.9,12.2c-6.7,0-11.9-5.4-11.9-12.2
		C735.5,38,740.7,32.7,747.4,32.7z M747.4,54.7c5.2,0,9.5-4.4,9.5-10c0-5.5-4.3-9.7-9.5-9.7c-5.3,0-9.5,4.2-9.5,9.7
		C737.9,50.3,742.1,54.7,747.4,54.7z"/>
	<path class="st4" d="M765.6,35.2h-2.2v-2.1h13.4c1.4,0,2,0.6,2,2v2.3h-2.2v-1.6c0-0.5-0.3-0.7-0.7-0.7h-8v8.5h8.8v2.1h-8.8v7.9
		c0,0.5,0.3,0.7,0.7,0.7h8.2c0.5,0,0.7-0.2,0.7-0.7v-1.6h2.2v2.3c0,1.4-0.6,2-2,2h-10.1c-1.4,0-2-0.6-2-2V35.2z"/>
	<path class="st4" d="M796.5,35.2h-2.2v-2.1h13.2c1.4,0,2,0.6,2,2v2.3h-2.2v-1.6c0-0.5-0.3-0.7-0.7-0.7h-7.8v7.7h5
		c4,0,7.5,2.2,7.5,6.7c0,4.4-3.3,6.8-7.5,6.8h-5.3c-1.4,0-2-0.6-2-2V35.2z M799.6,54.5h4.3c3,0,5-1.8,5-4.8c0-3-2-4.7-5-4.7h-5.1
		v8.8C798.8,54.2,799.1,54.5,799.6,54.5z"/>
	<path class="st4" d="M817.4,35.9c0-0.5-0.3-0.7-0.7-0.7h-1.4v-2.1h2.5c1.4,0,2,0.6,2,2v8.6h4.3c0.4-6.3,5.4-11,11.5-11
		c6.5,0,11.6,5.2,11.6,11.9c0,6.8-5.2,12.2-11.6,12.2c-6.1,0-11-4.8-11.5-11.1h-4.3v10.7h-2.3V35.9z M835.6,54.7
		c5.1,0,9.2-4.4,9.2-10c0-5.5-4.1-9.7-9.2-9.7c-5.1,0-9.2,4.2-9.2,9.7C826.4,50.3,830.5,54.7,835.6,54.7z"/>
	<path class="st4" d="M851,54.4h0.6c3.6-4.7,3.9-11.3,3.9-16.8v-2.5h-2.1v-2.1h12.9c1.4,0,2,0.6,2,2v19.3h0.9c1.4,0,2,0.6,2,2v4.7
		H869v-3.9c0-0.5-0.2-0.7-0.7-0.7h-16.5c-0.5,0-0.7,0.2-0.7,0.7v3.9H849v-4.7C849,55,849.6,54.4,851,54.4z M866.1,54.4V35.9
		c0-0.5-0.3-0.7-0.7-0.7h-7.6v2.6c0,5.7-0.5,12.2-3.6,16.7H866.1z"/>
	<path class="st4" d="M880.7,45.7c0.6-1,1.3-1.3,1.3-1.3v-0.1c0,0-0.5-0.3-1.1-1.3l-3.9-7c-0.4-0.7-0.9-0.8-1.7-0.8h-0.7v-2.1h1.1
		c1.9,0,2.3,0.3,3.1,1.8l4.2,7.4c0.5,0.9,1.2,1,2.2,1h1.5V33.1h2.3v10.2h1.5c1,0,1.7-0.1,2.2-1l4.2-7.4c0.8-1.5,1.2-1.8,3.1-1.8h1.1
		v2.1h-0.7c-0.8,0-1.3,0.1-1.7,0.8l-4,7c-0.6,1.1-1.1,1.3-1.1,1.3v0.1c0,0,0.8,0.3,1.4,1.3l6.6,10.8h-2.7l-6.2-10.2
		c-0.6-0.9-1.2-1-2.1-1h-1.8v11.2h-2.3V45.3h-1.8c-0.9,0-1.5,0.1-2.1,1l-6.2,10.2H874L880.7,45.7z"/>
	<path class="st4" d="M906.9,35.2h-2.2v-2.1h13.4c1.4,0,2,0.6,2,2v2.3H918v-1.6c0-0.5-0.3-0.7-0.7-0.7h-8v8.5h8.8v2.1h-8.8v7.9
		c0,0.5,0.3,0.7,0.7,0.7h8.2c0.5,0,0.7-0.2,0.7-0.7v-1.6h2.2v2.3c0,1.4-0.6,2-2,2h-10.1c-1.4,0-2-0.6-2-2V35.2z"/>
	<path class="st4" d="M932.8,35.2h-5.8c-0.5,0-0.7,0.2-0.7,0.7v1.6h-2.1V35c0-1.4,0.5-1.9,1.9-1.9h15.8c1.4,0,1.9,0.5,1.9,1.9v2.5
		h-2.1v-1.6c0-0.5-0.2-0.7-0.7-0.7h-5.8v21.3h-2.3V35.2z"/>
	<path class="st4" d="M949.4,35.9c0-0.5-0.3-0.7-0.7-0.7h-1.4v-2.1h2.5c1.4,0,2,0.6,2,2v8.6h13.4v-8.6c0-1.4,0.6-2,2-2h2.5v2.1h-1.4
		c-0.5,0-0.7,0.2-0.7,0.7v20.6h-2.3V45.8h-13.4v10.7h-2.3V35.9z"/>
	<path class="st4" d="M985.6,32.7c6.6,0,11.9,5.2,11.9,11.9c0,6.8-5.3,12.2-11.9,12.2c-6.7,0-11.9-5.4-11.9-12.2
		C973.7,38,979,32.7,985.6,32.7z M985.6,54.7c5.2,0,9.5-4.4,9.5-10c0-5.5-4.3-9.7-9.5-9.7c-5.3,0-9.5,4.2-9.5,9.7
		C976.2,50.3,980.4,54.7,985.6,54.7z"/>
	<path class="st4" d="M1003.8,35.2h-2.2v-2.1h13.4c1.4,0,2,0.6,2,2v2.3h-2.2v-1.6c0-0.5-0.3-0.7-0.7-0.7h-8v8.5h8.8v2.1h-8.8v7.9
		c0,0.5,0.3,0.7,0.7,0.7h8.2c0.5,0,0.7-0.2,0.7-0.7v-1.6h2.2v2.3c0,1.4-0.6,2-2,2h-10.1c-1.4,0-2-0.6-2-2V35.2z"/>
	<path class="st4" d="M1035.5,53.7c0.7,0.6,1.6,1.1,2.6,1.1c1.6,0,2.3-1.2,3-3.1l-7.6-15.7c-0.3-0.5-0.6-0.7-1.1-0.7h-0.6v-2.1h1.3
		c1.5,0,2,0.4,2.7,1.9l5.3,11.2c0.7,1.6,1.3,3,1.3,3h0.1c0,0,0.4-1.2,1-3l4.1-11.2c0.6-1.6,1.1-1.9,2.8-1.9h1v2.1h-0.4
		c-0.6,0-0.9,0.1-1.2,0.7l-6.7,17.2c-0.8,2.1-2.2,3.8-4.7,3.8c-2.1,0-3.7-1.2-3.9-1.4L1035.5,53.7z"/>
	<path class="st4" d="M1055.9,40.7v-4.8c0-0.5-0.3-0.7-0.7-0.7h-1.4v-2.1h2.5c1.4,0,2,0.6,2,2v5.1c0,3.2,1.4,5,5.1,5
		c2.4,0,4.6-1.1,5.6-1.8V33.1h2.3v23.4h-2.3v-9.8c0-0.5,0.1-1.1,0.1-1.1h-0.1c-1.2,0.7-3.5,1.7-6,1.7
		C1058.1,47.3,1055.9,44.9,1055.9,40.7z"/>
	<path class="st4" d="M1079.1,35.2h-2.2v-2.1h9.9c4.2,0,7.2,2.7,7.2,7c0,4.4-3.1,7.1-7.2,7.1h-5.4v9.2h-2.3V35.2z M1086.6,45.3
		c3.1,0,5.1-1.9,5.1-5.1c0-3.2-2-5-5.1-5h-5.2v10.1H1086.6z"/>
	<path class="st4" d="M1099.8,35.2h-2.2v-2.1h13.4c1.4,0,2,0.6,2,2v2.3h-2.2v-1.6c0-0.5-0.3-0.7-0.7-0.7h-8v8.5h8.8v2.1h-8.8v7.9
		c0,0.5,0.3,0.7,0.7,0.7h8.2c0.5,0,0.7-0.2,0.7-0.7v-1.6h2.2v2.3c0,1.4-0.6,2-2,2h-10.1c-1.4,0-2-0.6-2-2V35.2z"/>
	<path class="st4" d="M1123.6,45.7c0.6-1,1.3-1.3,1.3-1.3v-0.1c0,0-0.5-0.3-1.1-1.3l-3.9-7c-0.4-0.7-0.9-0.8-1.7-0.8h-0.7v-2.1h1.1
		c1.9,0,2.3,0.3,3.1,1.8l4.2,7.4c0.5,0.9,1.2,1,2.2,1h1.5V33.1h2.3v10.2h1.5c1,0,1.7-0.1,2.2-1l4.2-7.4c0.8-1.5,1.2-1.8,3.1-1.8h1.1
		v2.1h-0.7c-0.8,0-1.3,0.1-1.7,0.8l-4,7c-0.6,1.1-1.1,1.3-1.1,1.3v0.1c0,0,0.8,0.3,1.4,1.3l6.6,10.8h-2.7l-6.2-10.2
		c-0.6-0.9-1.2-1-2.1-1h-1.8v11.2h-2.3V45.3h-1.8c-0.9,0-1.5,0.1-2.1,1l-6.2,10.2h-2.6L1123.6,45.7z"/>
	<path class="st4" d="M1148.8,54.4h0.6c3.6-4.7,3.9-11.3,3.9-16.8v-2.5h-2.1v-2.1h12.9c1.4,0,2,0.6,2,2v19.3h0.9c1.4,0,2,0.6,2,2
		v4.7h-2.2v-3.9c0-0.5-0.2-0.7-0.7-0.7h-16.5c-0.5,0-0.7,0.2-0.7,0.7v3.9h-2.2v-4.7C1146.8,55,1147.4,54.4,1148.8,54.4z
		 M1163.9,54.4V35.9c0-0.5-0.3-0.7-0.7-0.7h-7.6v2.6c0,5.7-0.5,12.2-3.6,16.7H1163.9z"/>
	<path class="st4" d="M1174.9,35.2h-2.2v-2.1h13.4c1.4,0,2,0.6,2,2v2.3h-2.2v-1.6c0-0.5-0.3-0.7-0.7-0.7h-8v8.5h8.8v2.1h-8.8v7.9
		c0,0.5,0.3,0.7,0.7,0.7h8.2c0.5,0,0.7-0.2,0.7-0.7v-1.6h2.2v2.3c0,1.4-0.6,2-2,2h-10.1c-1.4,0-2-0.6-2-2V35.2z"/>
	<path class="st4" d="M1195.2,35.9c0-0.5-0.3-0.7-0.7-0.7h-1.4v-2.1h2.5c1.4,0,2,0.6,2,2v8.6h13.4v-8.6c0-1.4,0.6-2,2-2h2.5v2.1
		h-1.4c-0.5,0-0.7,0.2-0.7,0.7v20.6h-2.3V45.8h-13.4v10.7h-2.3V35.9z"/>
	<path class="st4" d="M1221.7,35.9c0-0.5-0.3-0.7-0.7-0.7h-1.4v-2.1h2.5c1.4,0,2,0.6,2,2v14.7c0,1.2-0.2,3.1-0.2,3.1h0.1
		c0,0,1.3-2.1,2.1-3.2l11.8-16.7h2.3v20.6c0,0.5,0.3,0.7,0.7,0.7h1.4v2.1h-2.5c-1.4,0-2-0.6-2-2V39.8c0-1.2,0.2-3.2,0.2-3.2h-0.1
		c0,0-1.2,2-2,3.2L1224,56.5h-2.3V35.9z"/>
	<path class="st4" d="M1248.5,35.2h-2.2v-2.1h13.4c1.4,0,2,0.6,2,2v2.3h-2.2v-1.6c0-0.5-0.3-0.7-0.7-0.7h-8v8.5h8.8v2.1h-8.8v7.9
		c0,0.5,0.3,0.7,0.7,0.7h8.2c0.5,0,0.7-0.2,0.7-0.7v-1.6h2.2v2.3c0,1.4-0.6,2-2,2h-10.1c-1.4,0-2-0.6-2-2V35.2z"/>
</g>
<g>
	<path class="st4" d="M166.8,102.1l9.6-12.1h5.7l-9.6,12.1l9.6,12h-5.7L166.8,102.1z M178.6,102.1l9.6-12.1h5.7l-9.6,12.1l9.6,12
		h-5.7L178.6,102.1z M202.3,87.2c0-0.9-0.5-1.3-1.3-1.3h-2.5v-5h5.9c2.6,0,3.7,1.1,3.7,3.7v31.3c0,0.8,0.5,1.3,1.3,1.3h18.9V80.8
		h5.9v36.3h1.1c2.6,0,3.7,1,3.7,3.7v9.5h-5.3v-6.9c0-0.8-0.4-1.3-1.2-1.3h-26.5c-2.6,0-3.8-1.1-3.8-3.7V87.2z M246.2,85.9h-3.8v-5
		h24.3c2.6,0,3.7,1.1,3.7,3.7v5.2h-5.4v-2.6c0-0.9-0.5-1.3-1.3-1.3h-11.8v12.9h14.5v5h-14.5v12c0,0.8,0.5,1.3,1.3,1.3h12.1
		c0.8,0,1.3-0.5,1.3-1.3v-2.6h5.3v5.2c0,2.6-1.1,3.7-3.7,3.7H250c-2.6,0-3.8-1.1-3.8-3.7V85.9z M279.7,87.2c0-0.9-0.5-1.3-1.3-1.3
		h-2.5v-5h5.9c2.6,0,3.7,1.1,3.7,3.7V99h21V84.6c0-2.6,1.1-3.7,3.8-3.7h5.9v5h-2.5c-0.8,0-1.3,0.4-1.3,1.3v35h-5.9V104h-21v18.1
		h-5.9V87.2z M333.8,85.9h-8.3c-0.9,0-1.3,0.4-1.3,1.3v2.6H319v-5.4c0-2.6,0.9-3.5,3.5-3.5h28.4c2.6,0,3.5,0.9,3.5,3.5v5.4h-5.2
		v-2.6c0-0.9-0.5-1.3-1.3-1.3h-8.3v36.3h-5.9V85.9z M360.9,85.9h-3.8v-5h18.2c7.6,0,13,5.1,13,12.9s-5.4,13.1-13,13.1h-8.5v15.3
		h-5.9V85.9z M374.4,101.8c4.9,0,7.9-3.1,7.9-8.1s-3-7.9-7.8-7.9h-7.7v16H374.4z M409.8,113.3c1.8,1.9,5.4,4.4,9.5,4.4
		c4.6,0,8.5-2.7,8.5-7.4c0-4.4-3.5-6.9-7.7-6.9h-4.9v-4.8h4.2c3.9,0,7.1-2.7,7.1-6.8c0-3.7-2.3-6.4-7.1-6.4c-3.6,0-6.5,1.8-6.5,3.9
		V91h-5.4v-3.2c0-5.6,7.2-7.6,12.3-7.6c8.2,0,12.5,4.4,12.5,10.8c0,5-3,7.8-6,9.4v0.1c4.6,1.3,7.3,5.1,7.3,10.1
		c0,7.3-5.9,12.3-14.5,12.3c-6.1,0-10.6-2.8-13.1-5.5L409.8,113.3z M436.1,117.1h0.8c1.1,0,1.6-0.2,1.9-1.3l12.9-35h6.1l12.9,35
		c0.4,1.1,0.9,1.3,1.9,1.3h0.8v5h-3.2c-2.9,0-3.9-0.7-4.9-3.4l-3.1-8.5h-15.2l-3.1,8.5c-1,2.7-1.9,3.4-4.9,3.4h-3.2V117.1z
		 M461,105.4l-4.5-12.6c-0.7-2.2-1.6-5.8-1.6-5.8h-0.1c0,0-0.9,3.6-1.6,5.8l-4.5,12.6H461z M479.7,87.2c0-0.9-0.5-1.3-1.3-1.3h-2.5
		v-5h5.9c2.6,0,3.7,1.1,3.7,3.7v31.3c0,0.8,0.5,1.3,1.3,1.3h13.9V80.8h5.9v36.3h15.2V80.8h5.9v36.3h1.6c2.6,0,3.7,1,3.7,3.7v9.5
		h-5.3v-6.9c0-0.8-0.4-1.3-1.2-1.3h-43c-2.6,0-3.8-1.1-3.8-3.7V87.2z M539.9,87.2c0-0.9-0.5-1.3-1.3-1.3h-2.5v-5h5.9
		c2.6,0,3.7,1.1,3.7,3.7v22.6c0,2.3-0.4,5.9-0.4,5.9h0.1c0,0,2.2-3.7,3.7-6l18-26.3h5.7v35c0,0.8,0.5,1.3,1.3,1.3h2.5v5H571
		c-2.7,0-3.8-1.1-3.8-3.7V95.7c0-2.3,0.4-6,0.4-6h-0.1c0,0-2,3.8-3.5,6l-18.1,26.5h-5.8V87.2z M594.4,85.9h-8.3
		c-0.9,0-1.3,0.4-1.3,1.3v2.6h-5.3v-5.4c0-2.6,0.9-3.5,3.5-3.5h28.4c2.6,0,3.5,0.9,3.5,3.5v5.4h-5.2v-2.6c0-0.9-0.5-1.3-1.3-1.3
		h-8.3v36.3h-5.9V85.9z M621.5,87.2c0-0.9-0.5-1.3-1.3-1.3h-2.5v-5h5.9c2.6,0,3.7,1.1,3.7,3.7v11.8h7.9c7.3,0,13.2,4,13.2,12.6
		c0,8.9-6.1,13.2-14.1,13.2h-9c-2.6,0-3.8-1.1-3.8-3.7V87.2z M628.7,117.1h6c4.7,0,7.7-2.9,7.7-8c0-5-3-7.7-7.7-7.7h-7.3v14.4
		C627.4,116.7,627.8,117.1,628.7,117.1z M654.2,80.8h5.9v35c0,0.8,0.5,1.3,1.3,1.3h2.5v5h-5.9c-2.6,0-3.7-1.1-3.7-3.7V80.8z
		 M687.3,85.9h-3.8v-5h32.1c2.6,0,3.7,1.1,3.7,3.7v31.3c0,0.8,0.5,1.3,1.3,1.3h2.5v5h-5.9c-2.7,0-3.8-1.1-3.8-3.7V87.2
		c0-0.9-0.5-1.3-1.3-1.3h-19.1v36.3h-5.9V85.9z M730.9,85.9h-3.8v-5h18.2c7.6,0,13,5.1,13,12.9s-5.4,13.1-13,13.1h-8.5v15.3h-5.9
		V85.9z M744.3,101.8c4.9,0,7.9-3.1,7.9-8.1s-3-7.9-7.8-7.9h-7.7v16H744.3z M757.3,117.1h0.8c1.1,0,1.6-0.2,1.9-1.3l12.9-35h6.1
		l12.9,35c0.4,1.1,0.9,1.3,1.9,1.3h0.8v5h-3.2c-2.9,0-3.9-0.7-4.9-3.4l-3.1-8.5h-15.2l-3.1,8.5c-1,2.7-1.9,3.4-4.9,3.4h-3.2V117.1z
		 M782.2,105.4l-4.5-12.6c-0.7-2.2-1.6-5.8-1.6-5.8h-0.1c0,0-0.9,3.6-1.6,5.8l-4.5,12.6H782.2z M800.9,85.9h-3.8v-5h18.1
		c7,0,12,3.9,12,10.5c0,4.5-2.4,7.5-5.1,8.9v0.1c4.3,1.3,6.8,5.4,6.8,10c0,7.8-6,11.8-13.3,11.8h-10.8c-2.6,0-3.8-1.1-3.8-3.7V85.9z
		 M815.2,98.2c3.7,0,6-2.6,6-6.3s-2.2-6.1-6.1-6.1h-8.5v12.3H815.2z M808,117.1h7.9c4.3,0,7-2.8,7-7c0-4.2-2.8-7.1-7-7.1h-9.2v12.8
		C806.7,116.7,807.1,117.1,808,117.1z M852.7,87.2c0-0.9-0.5-1.3-1.3-1.3h-2.5v-5h5.9c2.6,0,3.7,1.1,3.7,3.7v22.6
		c0,2.3-0.4,5.9-0.4,5.9h0.1c0,0,2.2-3.7,3.7-6l18-26.3h5.7v35c0,0.8,0.5,1.3,1.3,1.3h2.5v5h-5.9c-2.7,0-3.8-1.1-3.8-3.7V95.7
		c0-2.3,0.4-6,0.4-6h-0.1c0,0-2,3.8-3.5,6l-18.1,26.5h-5.8V87.2z M913.1,87.2c0-0.9-0.5-1.3-1.3-1.3h-2.5v-5h5.9
		c2.6,0,3.7,1.1,3.7,3.7v22.6c0,2.3-0.4,5.9-0.4,5.9h0.1c0,0,2.2-3.7,3.7-6l18-26.3h5.7v35c0,0.8,0.5,1.3,1.3,1.3h2.5v5h-5.9
		c-2.7,0-3.8-1.1-3.8-3.7V95.7c0-2.3,0.4-6,0.4-6h-0.1c0,0-2,3.8-3.5,6l-18.1,26.5h-5.8V87.2z M957.7,87.2c0-0.9-0.5-1.3-1.3-1.3
		h-2.5v-5h5.9c2.6,0,3.7,1.1,3.7,3.7V99h21V84.6c0-2.6,1.1-3.7,3.8-3.7h5.9v5h-2.5c-0.8,0-1.3,0.4-1.3,1.3v35h-5.9V104h-21v18.1
		h-5.9V87.2z M1011.8,85.9h-8.3c-0.9,0-1.3,0.4-1.3,1.3v2.6H997v-5.4c0-2.6,0.9-3.5,3.5-3.5h28.4c2.6,0,3.5,0.9,3.5,3.5v5.4h-5.2
		v-2.6c0-0.9-0.5-1.3-1.3-1.3h-8.3v36.3h-5.9V85.9z M1038.9,85.9h-3.8v-5h24.3c2.6,0,3.7,1.1,3.7,3.7v5.2h-5.4v-2.6
		c0-0.9-0.5-1.3-1.3-1.3h-11.8v12.9h14.5v5h-14.5v12c0,0.8,0.5,1.3,1.3,1.3h12.1c0.8,0,1.3-0.5,1.3-1.3v-2.6h5.3v5.2
		c0,2.6-1.1,3.7-3.7,3.7h-18.3c-2.6,0-3.8-1.1-3.8-3.7V85.9z M1072.3,85.9h-3.8v-5h18.2c7.6,0,13,5.1,13,12.9s-5.4,13.1-13,13.1
		h-8.5v15.3h-5.9V85.9z M1085.8,101.8c4.9,0,7.9-3.1,7.9-8.1s-3-7.9-7.8-7.9h-7.7v16H1085.8z M1106.6,85.9h-3.8v-5h24.3
		c2.6,0,3.7,1.1,3.7,3.7v5.2h-5.4v-2.6c0-0.9-0.5-1.3-1.3-1.3h-11.8v12.9h14.5v5h-14.5v12c0,0.8,0.5,1.3,1.3,1.3h12.1
		c0.8,0,1.3-0.5,1.3-1.3v-2.6h5.3v5.2c0,2.6-1.1,3.7-3.7,3.7h-18.3c-2.6,0-3.8-1.1-3.8-3.7V85.9z M1156.6,80.1
		c5.6,0,15.5,2.3,15.5,9v4h-5.4v-2.3c0-3.5-5.9-5.2-10-5.2c-8.3,0-14.7,6.3-14.7,15.6c0,9,6.5,16.2,14.9,16.2
		c8.2,0,13.1-5.6,13.1-5.6l3.2,4.2c0,0-5.9,6.9-16.3,6.9c-12.3,0-21-9.5-21-21.7C1135.9,89.2,1144.8,80.1,1156.6,80.1z M1197.5,80.1
		c11.9,0,21.2,9.2,21.2,21.1c0,12.2-9.3,21.7-21.2,21.7c-11.9,0-21.2-9.5-21.2-21.7C1176.3,89.3,1185.5,80.1,1197.5,80.1z
		 M1197.5,117.4c8.4,0,15.2-7,15.2-16.2c0-8.8-6.8-15.6-15.2-15.6s-15.1,6.8-15.1,15.6C1182.4,110.3,1189.1,117.4,1197.5,117.4z
		 M1226.4,85.9h-3.8v-5h18.1c7,0,12,3.9,12,10.5c0,4.5-2.4,7.5-5.1,8.9v0.1c4.3,1.3,6.8,5.4,6.8,10c0,7.8-6,11.8-13.3,11.8h-10.8
		c-2.6,0-3.8-1.1-3.8-3.7V85.9z M1240.8,98.2c3.7,0,6-2.6,6-6.3s-2.2-6.1-6.1-6.1h-8.5v12.3H1240.8z M1233.5,117.1h7.9
		c4.3,0,7-2.8,7-7c0-4.2-2.8-7.1-7-7.1h-9.2v12.8C1232.2,116.7,1232.7,117.1,1233.5,117.1z M1276.7,117.1h0.9
		c5.7-8.1,6.4-18.8,6.4-27.8v-3.5h-3.7v-5h24.3c2.6,0,3.7,1.1,3.7,3.7v32.5h1.3c2.6,0,3.7,1,3.7,3.7v9.5h-5.4v-6.9
		c0-0.8-0.4-1.3-1.2-1.3h-27c-0.8,0-1.2,0.4-1.2,1.3v6.9h-5.4v-9.5C1273,118.1,1274.1,117.1,1276.7,117.1z M1302.5,117.1v-30
		c0-0.9-0.5-1.3-1.3-1.3h-11.6v3.8c0,9-1,20-5.9,27.4H1302.5z M1320.4,85.9h-3.8v-5h24.3c2.6,0,3.7,1.1,3.7,3.7v5.2h-5.4v-2.6
		c0-0.9-0.5-1.3-1.3-1.3h-11.8v12.9h14.5v5h-14.5v12c0,0.8,0.5,1.3,1.3,1.3h12.1c0.8,0,1.3-0.5,1.3-1.3v-2.6h5.3v5.2
		c0,2.6-1.1,3.7-3.7,3.7h-18.3c-2.6,0-3.8-1.1-3.8-3.7V85.9z M1363.7,85.9h-8.3c-0.9,0-1.3,0.4-1.3,1.3v2.6h-5.3v-5.4
		c0-2.6,0.9-3.5,3.5-3.5h28.4c2.6,0,3.5,0.9,3.5,3.5v5.4h-5.2v-2.6c0-0.9-0.5-1.3-1.3-1.3h-8.3v36.3h-5.9V85.9z M1390.8,85.9h-3.8
		v-5h24.3c2.6,0,3.7,1.1,3.7,3.7v5.2h-5.4v-2.6c0-0.9-0.5-1.3-1.3-1.3h-11.8v12.9h14.5v5h-14.5v12c0,0.8,0.5,1.3,1.3,1.3h12.1
		c0.8,0,1.3-0.5,1.3-1.3v-2.6h5.3v5.2c0,2.6-1.1,3.7-3.7,3.7h-18.3c-2.6,0-3.8-1.1-3.8-3.7V85.9z M1424.3,87.2
		c0-0.9-0.5-1.3-1.3-1.3h-2.5v-5h5.9c2.6,0,3.7,1.1,3.7,3.7v22.6c0,2.3-0.4,5.9-0.4,5.9h0.1c0,0,2.2-3.7,3.7-6l18-26.3h5.7v35
		c0,0.8,0.5,1.3,1.3,1.3h2.5v5h-5.9c-2.7,0-3.8-1.1-3.8-3.7V95.7c0-2.3,0.4-6,0.4-6h-0.1c0,0-2,3.8-3.5,6l-18.1,26.5h-5.8V87.2z
		 M1431.9,71.4v-0.9h4.6v0.8c0,2.6,2,3.9,4.1,3.9s4.2-1.3,4.2-3.9v-0.8h4.5v0.9c0,4.8-4.1,7.5-8.7,7.5
		C1436.1,78.9,1431.9,76.2,1431.9,71.4z M1475.4,102.1l-9.6-12.1h5.7l9.6,12.1l-9.6,12h-5.7L1475.4,102.1z M1487.2,102.1l-9.6-12.1
		h5.7l9.6,12.1l-9.6,12h-5.7L1487.2,102.1z"/>
</g>
</svg>
