<svg xmlns="http://www.w3.org/2000/svg" viewBox="0 0 42 28.5"><defs><style>.cls-1{fill:none;stroke:#000;stroke-miterlimit:10;}</style></defs><g id="Слой_2" data-name="Слой 2"><circle class="cls-1" cx="9.5" cy="19" r="9"/><circle class="cls-1" cx="9.5" cy="19" r="6"/><line class="cls-1" x1="1.5" y1="15" x2="7.44" y2="4.77"/><line class="cls-1" x1="18.5" y1="8" x2="18.5" y2="19"/><path class="cls-1" d="M7.44,4.77A6,6,0,0,1,18.5,8"/><line class="cls-1" x1="13.92" y1="2.17" x2="14.27" y2="1.56"/><line class="cls-1" x1="18.5" y1="2.79" x2="18.5" y2="7"/><path class="cls-1" d="M14.27,1.56A2.3,2.3,0,0,1,18.5,2.79"/><line class="cls-1" x1="23.5" y1="8" x2="23.5" y2="19"/><circle class="cls-1" cx="32.5" cy="19" r="9"/><circle class="cls-1" cx="32.5" cy="19" r="6"/><line class="cls-1" x1="40.5" y1="15" x2="34.56" y2="4.77"/><line class="cls-1" x1="23.5" y1="8" x2="23.5" y2="19"/><path class="cls-1" d="M34.56,4.77A6,6,0,0,0,23.5,8"/><line class="cls-1" x1="28.08" y1="2.17" x2="27.73" y2="1.56"/><line class="cls-1" x1="23.5" y1="2.79" x2="23.5" y2="7"/><path class="cls-1" d="M27.73,1.56A2.3,2.3,0,0,0,23.5,2.79"/><line class="cls-1" x1="18" y1="8" x2="24" y2="8"/><line class="cls-1" x1="18" y1="14" x2="24" y2="14"/><line class="cls-1" x1="18" y1="16" x2="24" y2="16"/></g></svg>