<svg xmlns="http://www.w3.org/2000/svg" viewBox="0 0 43.5 35.5"><defs><style>.cls-1,.cls-2{fill:none;stroke:#000;}.cls-1{stroke-miterlimit:10;}.cls-2{stroke-linejoin:round;}</style></defs><g id="Слой_2" data-name="Слой 2"><path class="cls-1" d="M20.5,10.5h0A4.5,4.5,0,0,1,25,15V48.5A4.5,4.5,0,0,1,20.5,53h0a2,2,0,0,1-2-2V12.5a2,2,0,0,1,2-2Z" transform="translate(53.5 10) rotate(90)"/><path class="cls-1" d="M30,29.08h0a2.43,2.43,0,0,1-2.42,2.42H15.92a2.43,2.43,0,0,1-2.42-2.42h0"/><line class="cls-1" x1="40.5" y1="13.13" x2="40.5" y2="28.5"/><path class="cls-1" d="M3.5,28.5V10A2.46,2.46,0,0,1,6,7.5h6.57"/><path class="cls-2" d="M41,10.5H34l-3.52,4v-4H30A1.52,1.52,0,0,1,28.5,9V2A1.52,1.52,0,0,1,30,.5H41A1.52,1.52,0,0,1,42.5,2V9A1.52,1.52,0,0,1,41,10.5Z"/><path class="cls-2" d="M8.5,26.5c0-3,1-4,3-5a47.09,47.09,0,0,1,5-2"/><path class="cls-2" d="M19.5,20.5c-2,0-3-1-3-2V15.27h0a3.06,3.06,0,0,1-2-2.77v-5c0-1,1-4,5-4"/><path class="cls-2" d="M30.5,26.5c0-3-1-4-3-5a47.09,47.09,0,0,0-5-2"/><path class="cls-2" d="M19.5,20.5c2,0,3-1,3-2V15.27h0a3.06,3.06,0,0,0,2-2.77v-5c0-1-1-4-5-4"/></g></svg>