<svg xmlns="http://www.w3.org/2000/svg" viewBox="0 0 39 36.64"><defs><style>.cls-1{fill:none;stroke:#000;stroke-miterlimit:10;}</style></defs><g id="Слой_2" data-name="Слой 2"><polyline class="cls-1" points="0.5 3.65 0.5 29.65 19.5 32.65"/><line class="cls-1" x1="0.5" y1="33.15" x2="19.5" y2="36.15"/><polygon class="cls-1" points="19.5 29.65 4.5 25.65 4.5 0.65 19.5 4.65 19.5 29.65"/><line class="cls-1" x1="17" y1="22.85" x2="7" y2="20.19"/><line class="cls-1" x1="17" y1="16.85" x2="7" y2="14.19"/><line class="cls-1" x1="17" y1="9.85" x2="7" y2="7.19"/><polyline class="cls-1" points="38.5 3.65 38.5 29.65 19.5 32.65"/><line class="cls-1" x1="38.5" y1="33.15" x2="19.5" y2="36.15"/><polygon class="cls-1" points="19.5 29.65 34.5 25.65 34.5 0.65 19.5 4.65 19.5 29.65"/><line class="cls-1" x1="22" y1="22.85" x2="32" y2="20.19"/><line class="cls-1" x1="22" y1="16.85" x2="32" y2="14.19"/><line class="cls-1" x1="22" y1="9.85" x2="32" y2="7.19"/></g></svg>