<svg id="Слой_1" data-name="Слой 1" xmlns="http://www.w3.org/2000/svg" viewBox="0 0 60 60"><defs><style>.cls-1{fill:#4b7cbb;}.cls-2{fill:#42547a;}</style></defs><path class="cls-1" d="M43.63,29.21c-.88,1.62-4,7.8-7.5,10.81-3.31,2.87-8.25.22-4.64-3.67C38.63,28.69,42.16,9.63,53.2,6.25c3.24-1,4,2.35,4.78,3.75C66.59,26.12,45.62,49.37,33.7,57.54c-3.24,2.28-8-1.4-3-4.71S46.28,36.49,43.63,29.21"/><path class="cls-2" d="M30.09,9.78C17.88-5.08.14,2.35.14,18.61c0,13.84,14.28,27.89,23.62,36.06,2.51,2.28,4-1.92,1.48-3.61C14.93,44.66-.45,23,7.21,11c1.1-1.69,4.27-1.4,3.6,1.33-1,4.34.81,11.25,5.74,12,3.9.59,8.47-1.77,11.33-4.49,2.65-2.5,6.55-1.32,3.76,2.5-4.64,6.26-15.6,20.31-.08,25C33.85,48.12,34.29,45,33,45a6.63,6.63,0,0,1-6-3.67C24.57,36.42,31.56,31,35.32,22.73,39,14.78,43.41,6.1,51.06,3.16c-6.18-2.94-14.42-1.4-21,6.62M19.57,19.42a5.23,5.23,0,1,1,5.3-5.15,5.25,5.25,0,0,1-5.3,5.15"/></svg>