<svg xmlns="http://www.w3.org/2000/svg" viewBox="0 0 60 60"><defs><style>.cls-1{fill:none;stroke:#124882;stroke-linecap:round;stroke-linejoin:round;}</style></defs><g id="Слой_2" data-name="Слой 2"><path class="cls-1" d="M43.18,29.23c-.85,1.57-3.84,7.54-7.26,10.46-3.2,2.77-8,.21-4.48-3.56,6.9-7.39,10.32-25.82,21-29.09,3.13-1,3.92,2.28,4.63,3.63C65.37,26.25,45.1,48.72,33.58,56.62c-3.13,2.2-7.68-1.35-2.85-4.56s15-15.78,12.45-22.83"/><path class="cls-1" d="M30.09,10.46C18.29-3.91,1.14,3.27,1.14,19c0,13.37,13.8,27,22.83,34.85,2.42,2.21,3.85-1.85,1.43-3.48C15.44,44.17.57,23.19,8,11.67,9,10,12.1,10.31,11.46,13c-1,4.19.78,10.88,5.54,11.59,3.77.57,8.18-1.71,11-4.34,2.56-2.42,6.33-1.28,3.63,2.42-4.49,6-15.08,19.63-.08,24.18,2.21.71,2.64-2.27,1.43-2.35A6.41,6.41,0,0,1,27.1,40.9c-2.34-4.7,4.41-10,8-17.93C38.7,15.29,43,6.9,50.36,4.06c-6-2.85-13.94-1.36-20.27,6.4M19.92,19.77a5.05,5.05,0,1,1,5.12-5,5.07,5.07,0,0,1-5.12,5"/></g></svg>