<svg id="Слой_1" data-name="Слой 1" xmlns="http://www.w3.org/2000/svg" xmlns:xlink="http://www.w3.org/1999/xlink" viewBox="0 0 60 60"><defs><style>.cls-1{fill:#faa747;}.cls-2{fill:#445776;}.cls-3{fill:#f26453;}.cls-4{fill:url(#Безымянный_градиент_2);}.cls-5{fill:url(#Безымянный_градиент_2-2);}</style><linearGradient id="Безымянный_градиент_2" x1="59.07" y1="741.92" x2="34.07" y2="752.11" gradientTransform="translate(0 -698.48)" gradientUnits="userSpaceOnUse"><stop offset="0" stop-color="#445776"/><stop offset="1" stop-color="#f26453"/></linearGradient><linearGradient id="Безымянный_градиент_2-2" x1="58.96" y1="741.64" x2="33.95" y2="751.83" xlink:href="#Безымянный_градиент_2"/></defs><path class="cls-1" d="M28.5,22.08A4.45,4.45,0,0,0,27.43,19a5.2,5.2,0,0,0-4.15-1.72V16.06H20.34v1.22A5.1,5.1,0,0,0,16.19,19a4.77,4.77,0,0,0-1.07,3.08c0,2.79,1.93,4.93,5.22,4.93v1.51h2.94V27A4.73,4.73,0,0,0,28.5,22.08Zm-8.16,2.57c-1.5,0-2.21-1.07-2.21-2.5a2.14,2.14,0,0,1,2.21-2.37Zm2.94,0V19.78a2.12,2.12,0,0,1,2.22,2.37A2.26,2.26,0,0,1,23.28,24.65Z"/><path class="cls-1" d="M33.16,17.85c0-.86-.36-1.21-1.22-1.21H29.15v2.5h.71a.34.34,0,0,1,.36.36v7.66c0,.86.36,1.21,1.22,1.21h7.23c.21,0,.29.15.29.36v1.94h2.5V27.09c0-.86-.29-1.15-1.14-1.15H40V16.71H37.17v9.16H33.59a.34.34,0,0,1-.36-.36V17.85Z"/><path class="cls-2" d="M19.13,47.92V44.34h1.72a3.76,3.76,0,0,0,3.79-4.08,3.7,3.7,0,0,0-3.79-4H15.19v2.43h1.07v9.24Zm0-9.24h1.14c.93,0,1.36.65,1.36,1.58s-.43,1.57-1.43,1.57H19.13V38.68Z"/><path class="cls-2" d="M34.16,47.92H37V45.48h-.71a.34.34,0,0,1-.36-.36V37.47c0-.86-.36-1.22-1.22-1.22H25.21v2.43h1.08v9.24h2.93V38.68h3.36a.34.34,0,0,1,.36.36V46.7C32.94,47.56,33.3,47.92,34.16,47.92Z"/><path class="cls-2" d="M37.74,42a5.9,5.9,0,0,0,6.15,6.16,6.81,6.81,0,0,0,4.87-2.07L47.26,44A4.71,4.71,0,0,1,44,45.48a3.33,3.33,0,0,1-3.15-3.43,2.93,2.93,0,0,1,3.07-3.22c.72,0,1.79.28,1.79.93v.64h2.58V38.9c0-2.22-3.08-2.72-4.44-2.72A5.67,5.67,0,0,0,37.74,42Z"/><path class="cls-2" d="M50.41,47.92h2.93V38.68h3.37a.35.35,0,0,1,.36.36v8.88H60V37.47c0-.86-.36-1.22-1.22-1.22H49.33v2.43h1.08v9.24Z"/><polygon class="cls-3" points="57.06 50.85 12.26 50.85 12.26 19 12.26 16.06 9.32 16.06 6.67 16.06 21.78 7.76 31.65 13.13 31.65 13.13 33.09 10.62 21.78 4.39 21.78 4.39 21.78 4.39 21.78 4.39 21.78 4.39 -0.06 16.42 1.38 19 1.38 19 1.38 19 3.52 19 6.39 19 9.32 19 9.32 53.79 12.26 53.79 57.06 53.79 60 53.79 60 50.85 60 47.92 57.06 47.92 57.06 50.85"/><rect class="cls-4" x="57.07" y="39.4" width="2.93" height="8.52"/><polygon class="cls-5" points="57.06 47.77 57.06 50.85 12.97 50.85 12.97 53.79 60 53.79 60 47.77 57.06 47.77"/></svg>