<svg xmlns="http://www.w3.org/2000/svg" viewBox="0 0 60 60"><defs><style>.cls-1{fill:none;stroke:#124882;stroke-linecap:round;stroke-linejoin:round;}</style></defs><g id="Слой_2" data-name="Слой 2"><path class="cls-1" d="M28.55,22.31a4.34,4.34,0,0,0-1-3,5.08,5.08,0,0,0-4-1.66V16.5H20.66v1.17a5,5,0,0,0-4,1.66,4.6,4.6,0,0,0-1,3c0,2.7,1.87,4.77,5.05,4.77v1.46H23.5V27.08A4.58,4.58,0,0,0,28.55,22.31ZM20.66,24.8c-1.45,0-2.14-1-2.14-2.42a2.07,2.07,0,0,1,2.14-2.29Zm2.84,0V20.09a2,2,0,0,1,2.15,2.29A2.19,2.19,0,0,1,23.5,24.8Z"/><path class="cls-1" d="M33.05,18.23c0-.83-.34-1.18-1.18-1.18H29.18v2.42h.69a.32.32,0,0,1,.34.35v7.4c0,.83.35,1.18,1.18,1.18h7c.21,0,.28.14.28.34v1.87h2.42V27.15c0-.83-.28-1.1-1.11-1.1h-.28V17.12H36.93V26H33.47a.33.33,0,0,1-.35-.35v-7.4Z"/><path class="cls-1" d="M19.49,47.29V43.83h1.66a3.64,3.64,0,0,0,3.67-3.94A3.59,3.59,0,0,0,21.15,36H15.68v2.35h1v8.93Zm0-8.93H20.6c.9,0,1.31.63,1.31,1.53s-.41,1.52-1.38,1.52h-1v-3Z"/><path class="cls-1" d="M34,47.29h2.7V44.94H36a.33.33,0,0,1-.35-.35v-7.4c0-.83-.35-1.18-1.18-1.18H25.37v2.35h1v8.93h2.84V38.36H32.5a.32.32,0,0,1,.34.35v7.4C32.84,46.94,33.19,47.29,34,47.29Z"/><path class="cls-1" d="M37.48,41.55a5.7,5.7,0,0,0,6,6,6.57,6.57,0,0,0,4.71-2l-1.46-2a4.52,4.52,0,0,1-3.18,1.46,3.23,3.23,0,0,1-3-3.32,2.83,2.83,0,0,1,3-3.12c.69,0,1.73.28,1.73.9V40h2.49V38.57c0-2.14-3-2.63-4.29-2.63A5.49,5.49,0,0,0,37.48,41.55Z"/><path class="cls-1" d="M57.82,36H48.69v2.35h1v8.93h2.83V38.36h3.26a.33.33,0,0,1,.34.35V50.13H12.85V16.5H7.45l14.6-8,9.55,5.19L33,11.24l-10.93-6L.94,16.84l1.39,2.49H10V53H59V37.19C59,36.36,58.65,36,57.82,36Z"/></g></svg>