<svg xmlns="http://www.w3.org/2000/svg" xmlns:xlink="http://www.w3.org/1999/xlink" viewBox="0 0 60 60"><defs><style>.cls-1,.cls-2{fill:#fff;}.cls-1,.cls-4{stroke:#124882;stroke-linecap:round;stroke-linejoin:round;}.cls-3{clip-path:url(#clip-path);}.cls-4{fill:none;}.cls-5{clip-path:url(#clip-path-2);}.cls-6{clip-path:url(#clip-path-3);}.cls-7{clip-path:url(#clip-path-4);}.cls-8{clip-path:url(#clip-path-5);}</style><clipPath id="clip-path"><polygon class="cls-1" points="1 36.47 1 49.47 14.17 49.47 14.17 23.47 1 36.47"/></clipPath><clipPath id="clip-path-2"><polygon class="cls-1" points="14.17 23.47 14.17 49.47 20.14 43.51 20.14 23.47 27.04 23.47 20.14 23.47 27.04 16.56 27.04 10.6 14.17 23.47"/></clipPath><clipPath id="clip-path-3"><polygon class="cls-1" points="27.04 23.47 20.14 23.47 20.14 49.47 46.13 49.47 46.13 23.47 27.04 23.47"/></clipPath><clipPath id="clip-path-4"><polygon class="cls-1" points="46.13 23.47 46.13 49.47 59 36.6 59 10.6 46.13 23.47"/></clipPath><clipPath id="clip-path-5"><polygon class="cls-1" points="33 10.6 27.04 16.56 20.14 23.47 46.13 23.47 59 10.6 33 10.6"/></clipPath></defs><g id="Слой_2" data-name="Слой 2"><polygon class="cls-1" points="1 36.47 1 49.47 14.17 49.47 14.17 23.47 1 36.47"/><polygon class="cls-2" points="1 36.47 1 49.47 14.17 49.47 14.17 23.47 1 36.47"/><g class="cls-3"><rect class="cls-2" x="0.84" y="23.16" width="13.62" height="26.6"/><rect class="cls-4" x="0.84" y="23.16" width="13.62" height="26.6"/></g><polygon class="cls-4" points="1 36.47 1 49.47 14.17 49.47 14.17 23.47 1 36.47"/><polygon class="cls-1" points="27.04 10.6 14.17 23.47 14.17 49.47 27.04 36.6 27.04 10.6"/><polygon class="cls-2" points="14.17 23.47 14.17 49.47 20.14 43.51 20.14 23.47 27.04 23.47 20.14 23.47 27.04 16.56 27.04 10.6 14.17 23.47"/><g class="cls-5"><rect class="cls-2" x="14.03" y="10.4" width="13.19" height="39.36"/><rect class="cls-4" x="14.03" y="10.4" width="13.19" height="39.36"/></g><polygon class="cls-4" points="14.17 23.47 14.17 49.47 20.14 43.51 20.14 23.47 27.04 23.47 20.14 23.47 27.04 16.56 27.04 10.6 14.17 23.47"/><rect class="cls-1" x="33" y="10.6" width="26" height="26"/><rect class="cls-1" x="20.13" y="23.47" width="26" height="26"/><polygon class="cls-2" points="27.04 23.47 20.14 23.47 20.14 49.47 46.13 49.47 46.13 23.47 27.04 23.47"/><g class="cls-6"><rect class="cls-2" x="19.87" y="23.16" width="26.38" height="26.6"/><rect class="cls-4" x="19.87" y="23.16" width="26.38" height="26.6"/></g><polygon class="cls-4" points="27.04 23.47 20.14 23.47 20.14 49.47 46.13 49.47 46.13 23.47 27.04 23.47"/><polygon class="cls-1" points="59 10.6 46.13 23.47 46.13 49.47 59 36.6 59 10.6"/><polygon class="cls-2" points="46.13 23.47 46.13 49.47 59 36.6 59 10.6 46.13 23.47"/><g class="cls-7"><rect class="cls-2" x="45.82" y="10.4" width="13.41" height="39.36"/><rect class="cls-4" x="45.82" y="10.4" width="13.41" height="39.36"/></g><polygon class="cls-4" points="46.13 23.47 46.13 49.47 59 36.6 59 10.6 46.13 23.47"/><polygon class="cls-1" points="33 10.6 20.14 23.47 46.13 23.47 59 10.6 33 10.6"/><polygon class="cls-2" points="33 10.6 27.04 16.56 20.14 23.47 46.13 23.47 59 10.6 33 10.6"/><g class="cls-8"><rect class="cls-2" x="19.87" y="10.4" width="39.36" height="13.19"/><rect class="cls-4" x="19.87" y="10.4" width="39.36" height="13.19"/></g><polygon class="cls-4" points="33 10.6 27.04 16.56 20.14 23.47 46.13 23.47 59 10.6 33 10.6"/></g></svg>