<svg id="Слой_1" data-name="Слой 1" xmlns="http://www.w3.org/2000/svg" viewBox="0 0 60 60"><defs><style>.cls-1{fill:#1c75bc;}.cls-2{fill:#08a14a;}.cls-3{fill:#f7941e;}.cls-4{fill:#be1e2d;}.cls-5{fill:#2b3990;}</style></defs><path class="cls-1" d="M40.27,48.29a18.79,18.79,0,0,1-9.07,3h-.28c-.3,0-.6,0-.9,0h-.8l-.38,0a18.75,18.75,0,0,1-9.12-3l0,0-.3,0-.17,0-.51,0-.66-.1a19.21,19.21,0,0,1-2.91-.68,18.6,18.6,0,0,1-8.5-5.73,17.88,17.88,0,0,0,3.56,9.43,5.17,5.17,0,0,1,6.55-1.23,5.29,5.29,0,0,1,.5.32,4.09,4.09,0,0,1,.44.39,5.12,5.12,0,0,1,.86,6.61,17.82,17.82,0,0,0,8.65.76c.49-.08,1-.19,1.44-.3l.7-.19.71-.22a17.72,17.72,0,0,0,8.79-6.43,17.44,17.44,0,0,0,1.53-2.52v0a.22.22,0,0,1,.05-.08,1.19,1.19,0,0,0-.15.09"/><path class="cls-2" d="M8.26,26.12c.08-.18.17-.36.24-.55A3.86,3.86,0,0,0,8.62,25a4.24,4.24,0,0,0-.38-2.71,4.3,4.3,0,0,0-2.45-2.12l-.06,0-.37-.09L4.88,20a3.88,3.88,0,0,0-.48,0A4.31,4.31,0,0,0,2.28,28a4,4,0,0,0,.43.19c.12,0,.23.11.35.15l.07,0a4.29,4.29,0,0,0,5.13-2.24"/><path class="cls-2" d="M12.57,39.5l-.12-.32c-.1-.27-.19-.53-.27-.79s-.18-.55-.26-.83c0-.1-.05-.2-.08-.31a18.83,18.83,0,0,1,.05-9.63s0,0,0,0-.05-.2-.07-.3,0-.11,0-.17l-.12-.5c0-.22-.07-.44-.1-.65a18.4,18.4,0,0,1,2.6-12.86c-.46.19-.92.39-1.36.62a17.6,17.6,0,0,0-6.56,5.71,5.11,5.11,0,0,1,3.21,5.84c0,.19-.08.38-.14.57s-.16.37-.24.55a5.14,5.14,0,0,1-4.69,3,5.09,5.09,0,0,1-1.33-.19A17.78,17.78,0,0,0,5,37.71c.23.44.48.87.74,1.29.12.2.25.39.38.59s.29.42.45.62a17.7,17.7,0,0,0,8.81,6.37,19,19,0,0,0,2.87.67h0l.09,0-.13-.11a18.76,18.76,0,0,1-5.69-7.66"/><path class="cls-3" d="M34.31,5.23a3.42,3.42,0,0,0,0-.46,4.31,4.31,0,0,0-8.45,0,2.24,2.24,0,0,0-.05.46c0,.12,0,.25,0,.38s0,0,0,.08a4.3,4.3,0,0,0,3.71,4.17,3.93,3.93,0,0,0,.59.06,3.8,3.8,0,0,0,.59-.06,4.29,4.29,0,0,0,3.71-4.17s0-.05,0-.08a2.33,2.33,0,0,0,0-.38"/><path class="cls-4" d="M55.68,29.43a5.12,5.12,0,0,1-2.35-.57,5.19,5.19,0,0,1-1.94-1.75,6.3,6.3,0,0,1-.4-.72,5.31,5.31,0,0,1-.23-.55,4,4,0,0,1-.15-.57,5.18,5.18,0,0,1,3.19-5.85,17.88,17.88,0,0,0-7.89-6.31c-.21-.09-.43-.16-.65-.24l-.72-.25a17.55,17.55,0,0,0-13.6,1.17h0l-.08,0H31a18.74,18.74,0,0,1,9.11,2.86l.12.07.15.11c.24.16.48.32.71.49s.45.33.67.51l.26.21a18.68,18.68,0,0,1,5.61,7.81s0,0,0,.05l.23.2.13.11.39.34c.16.15.31.31.47.47l0,0a18.51,18.51,0,0,1,1.92,2.23c.35.48.66,1,1,1.48.08.13.16.27.23.41.22.38.42.78.61,1.18.06.13.13.27.18.4.2.45.38.9.54,1.36a2.09,2.09,0,0,1,.08.23,18.62,18.62,0,0,1,.81,3.47v.05c.05.35.09.7.11,1,.25-.41.5-.83.72-1.26A17.78,17.78,0,0,0,57,29.24a5,5,0,0,1-1.33.19"/><path class="cls-5" d="M49.57,52.19a2.17,2.17,0,0,0-.19-.33l-.05-.06a4.29,4.29,0,0,0-2.76-1.67,5.34,5.34,0,0,0-.69-.05,4.32,4.32,0,0,0-2,.51c-.17.1-.34.2-.5.31a4.29,4.29,0,0,0-1,6l0,.06a2.43,2.43,0,0,0,.26.29,3.59,3.59,0,0,0,.32.36,4.3,4.3,0,0,0,5.44.31,4.27,4.27,0,0,0,1.73-2.82,4.34,4.34,0,0,0-.34-2.47c-.07-.14-.16-.27-.24-.4"/><path class="cls-1" d="M16.72,50.9a5.19,5.19,0,0,0-.5-.31,4.3,4.3,0,0,0-5.47,1.21l-.05.06a3.54,3.54,0,0,0-.19.33c-.08.13-.17.26-.24.4a4.36,4.36,0,0,0-.34,2.48,4.31,4.31,0,0,0,1.73,2.81,4.27,4.27,0,0,0,3.21.77,4.33,4.33,0,0,0,2.23-1.08,3.59,3.59,0,0,0,.32-.36,2.43,2.43,0,0,0,.26-.29l0-.06a4.32,4.32,0,0,0-.55-5.56,3.47,3.47,0,0,0-.45-.4"/><path class="cls-5" d="M53.93,40.64h-.41c0-.15,0-.29,0-.44s0-.19,0-.29,0-.21,0-.31c0-.52-.06-1-.12-1.55a.13.13,0,0,1,0-.06,17.57,17.57,0,0,0-.76-3.3,2,2,0,0,1-.08-.22c-.15-.44-.33-.87-.52-1.3,0-.13-.11-.25-.17-.38-.18-.38-.37-.76-.58-1.13-.07-.13-.14-.26-.22-.39a15.45,15.45,0,0,0-.92-1.41,17.66,17.66,0,0,0-1.92-2.23l0,0-.07-.06h0a1.16,1.16,0,0,1,0,.18c.13.47.25.95.34,1.43a1.85,1.85,0,0,0,0,.23c.08.46.15.93.19,1.4l0,.28q.06.69.06,1.38a2.44,2.44,0,0,1,0,.27c0,.48,0,1-.06,1.45,0,.06,0,.11,0,.17,0,.52-.11,1-.2,1.57,0,.12-.06.24-.08.37-.09.42-.17.85-.29,1.27v0a.65.65,0,0,1,0,.13,1.27,1.27,0,0,1-.06.18q-.14.48-.3,1a1.72,1.72,0,0,0-.07.21l-.21.53c-.12.31-.25.63-.4.94a1.47,1.47,0,0,1-.06.14c0,.06-.05.13-.08.19h0a18.76,18.76,0,0,1-5.12,6.43l0,0a2.33,2.33,0,0,0-.11.28.77.77,0,0,0-.07.16c-.07.15-.13.31-.2.47l-.3.59a19.59,19.59,0,0,1-1.55,2.56,18.54,18.54,0,0,1-8.09,6.32c.48.11.95.22,1.44.3a17.94,17.94,0,0,0,8.65-.76,5.12,5.12,0,0,1,.86-6.61,5.34,5.34,0,0,1,.44-.39,3.84,3.84,0,0,1,.5-.32,5.19,5.19,0,0,1,6.56,1.23,18,18,0,0,0,3.55-9.43c0-.24,0-.48,0-.72v-.32h.44Z"/><path class="cls-3" d="M35.21,5.91a5.2,5.2,0,0,1-4.58,4.85,5.82,5.82,0,0,1-1.18,0,5.2,5.2,0,0,1-4.58-4.85,17.91,17.91,0,0,0-8.41,5.53L16,12c-.15.19-.29.38-.43.58A17.72,17.72,0,0,0,12.2,23a18,18,0,0,0,.25,2.93v0s0,.06,0,.09a.94.94,0,0,1,.06-.15,18.71,18.71,0,0,1,5.52-7.77l.29-.24.64-.48c.24-.18.49-.35.74-.51l.24-.16a18.63,18.63,0,0,1,9.18-2.93h.05l.26-.15.15-.09.44-.27.59-.3a18.87,18.87,0,0,1,2.75-1.16c.57-.18,1.15-.34,1.72-.46l.11,0c.53-.12,1.07-.2,1.6-.27l.27,0c.48,0,1-.08,1.44-.1h.53l1.2,0L41,11l1,.13.89.16.73.16a17.91,17.91,0,0,0-8.41-5.53"/><path class="cls-4" d="M59.79,22.91a4.32,4.32,0,0,0-4.11-3,3.88,3.88,0,0,0-.48,0h0l-.46.08-.38.09-.07,0A4.3,4.3,0,0,0,51.46,25a2.86,2.86,0,0,0,.13.58,4.53,4.53,0,0,0,.23.55,4.38,4.38,0,0,0,.66,1A4.28,4.28,0,0,0,57,28.36l.07,0c.12,0,.23-.1.35-.15A4,4,0,0,0,57.8,28a4.23,4.23,0,0,0,1.73-1.8,4.33,4.33,0,0,0,.26-3.29"/><path class="cls-2" d="M36.69,24.25a1.37,1.37,0,0,0-.8.43l-3.14,3.13a.22.22,0,0,1-.18.08h-5a.31.31,0,0,1-.22-.09c-1-1.05-2.08-2.08-3.12-3.12a1.36,1.36,0,0,0-1.43-.39,1.38,1.38,0,0,0-.57,2.28l4.1,4.09a.3.3,0,0,1,.07.1.25.25,0,0,1,0,.12V42.53a1.6,1.6,0,0,0,1,1.49,2.88,2.88,0,0,0,.42.11h.33l.25-.05a1.64,1.64,0,0,0,1.16-1.26,1.83,1.83,0,0,0,0-.33V37h.91v.15c0,1.77,0,3.54,0,5.3A1.62,1.62,0,0,0,31,43.7a1.51,1.51,0,0,0,.86.41l.08,0h.31l.07,0a1.39,1.39,0,0,0,.88-.43,1.58,1.58,0,0,0,.49-1.22V30.88a.23.23,0,0,1,0-.12.34.34,0,0,1,.07-.11l4.05-4a1.4,1.4,0,0,0,.41-1.31,1.38,1.38,0,0,0-1.56-1.05"/><path class="cls-2" d="M29.45,27.37a2.79,2.79,0,0,0,.58.07,3.81,3.81,0,0,0,.6-.06,3.2,3.2,0,0,0,0-6.3,2.93,2.93,0,0,0-1.18,0,3.2,3.2,0,0,0,0,6.29"/></svg>