<svg xmlns="http://www.w3.org/2000/svg" viewBox="0 0 60 60"><defs><style>.cls-1,.cls-2{fill:#fff;}.cls-1{stroke:#124882;stroke-linecap:round;stroke-linejoin:round;}.cls-3{fill:#124882;}</style></defs><g id="Слой_2" data-name="Слой 2"><path class="cls-1" d="M39.93,47.68a18.09,18.09,0,0,1-8.77,2.94h-.27l-.87,0-.78,0-.36,0a17.9,17.9,0,0,1-8.81-2.92l0,0-.29,0h-.17l-.5-.05c-.21,0-.42-.06-.63-.09a19.43,19.43,0,0,1-2.81-.66,18,18,0,0,1-8.22-5.54,17.22,17.22,0,0,0,3.44,9.11,5.13,5.13,0,0,1,6.82-.88c.15.12.28.25.42.38a4.92,4.92,0,0,1,1.58,2.89,5,5,0,0,1-.74,3.5,17.11,17.11,0,0,0,8.36.73,13.19,13.19,0,0,0,1.39-.29c.22,0,.45-.11.67-.18s.46-.14.69-.21a17.15,17.15,0,0,0,8.5-6.21A16.81,16.81,0,0,0,40,47.69l0,0s0-.05,0-.08l-.14.09"/><path class="cls-1" d="M9,26.25a4.2,4.2,0,0,0,.22-.53,5.07,5.07,0,0,0,.13-.56A4.13,4.13,0,0,0,6.6,20.5l-.06,0-.36-.09-.46-.08c-.16,0-.31,0-.47,0a4.17,4.17,0,0,0-4,2.88,4.1,4.1,0,0,0,.25,3.18,4.18,4.18,0,0,0,1.67,1.74c.13.07.27.12.41.18s.22.11.34.15H4a4.15,4.15,0,0,0,3.11-.26A4.2,4.2,0,0,0,9,26.25"/><path class="cls-1" d="M13.16,39.18,13,38.87c-.1-.25-.19-.51-.27-.76s-.17-.54-.24-.81c0-.09,0-.19-.08-.29a18,18,0,0,1,.05-9.31s0,0,0,0l-.06-.29a.94.94,0,0,1,0-.16c0-.16-.08-.32-.11-.49s-.07-.42-.11-.63A18.45,18.45,0,0,1,12,23.21a17.92,17.92,0,0,1,2.76-9.55q-.68.27-1.32.6a17.19,17.19,0,0,0-6.34,5.52,4.81,4.81,0,0,1,2.74,6.73A5,5,0,0,1,7.53,28.9a5.06,5.06,0,0,1-2.27.55A5.21,5.21,0,0,1,4,29.27a17.06,17.06,0,0,0,1.89,8.18,13.9,13.9,0,0,0,.71,1.25l.37.57.43.6A17.06,17.06,0,0,0,15.89,46a16.39,16.39,0,0,0,2.77.65h.12l-.13-.1a18.14,18.14,0,0,1-5.49-7.41"/><path class="cls-1" d="M34.17,6.05c0-.15,0-.3,0-.44a4.17,4.17,0,0,0-8.17,0,3.12,3.12,0,0,0-.05.44c0,.13,0,.25,0,.37s0,0,0,.08a4.15,4.15,0,0,0,3.59,4,3.68,3.68,0,0,0,.57.06,3.55,3.55,0,0,0,.57-.06,4.15,4.15,0,0,0,3.59-4s0,0,0-.08,0-.24,0-.37"/><path class="cls-1" d="M54.83,29.45a4.93,4.93,0,0,1-4.15-2.24,4.8,4.8,0,0,1-.39-.7,5,5,0,0,1-.23-.53,5.54,5.54,0,0,1-.14-.55A5,5,0,0,1,53,19.77a17.19,17.19,0,0,0-7.63-6.09l-.63-.24-.7-.24a17.18,17.18,0,0,0-10.52,0,17.75,17.75,0,0,0-2.62,1.11h0l-.08,0H31a18,18,0,0,1,8.81,2.77l.11.06.14.1.69.48.65.49.25.21A18,18,0,0,1,47,26.05a.08.08,0,0,1,0,.05l.22.19.13.11.37.32.46.45,0,0a18.16,18.16,0,0,1,1.86,2.15c.33.47.64.94.93,1.43l.22.4c.21.37.41.75.59,1.14.06.13.12.26.17.39A13.21,13.21,0,0,1,52.56,34c0,.08.06.15.08.22a17.52,17.52,0,0,1,.78,3.35v.06c0,.33.09.67.11,1,.24-.4.48-.8.7-1.22a17.17,17.17,0,0,0,1.88-8.18,5.2,5.2,0,0,1-1.28.18"/><path class="cls-1" d="M48.92,51.45a2.07,2.07,0,0,0-.19-.32l0-.06A4.1,4.1,0,0,0,46,49.46a4.89,4.89,0,0,0-.66-.05,4,4,0,0,0-2,.5,4.85,4.85,0,0,0-.49.29,5.22,5.22,0,0,0-.43.39A4.14,4.14,0,0,0,42,56s0,0,0,.06a3.2,3.2,0,0,0,.25.27,2.59,2.59,0,0,0,.31.35,4.17,4.17,0,0,0,5.26.3,4.17,4.17,0,0,0,1.34-5.12,3.85,3.85,0,0,0-.23-.38"/><path class="cls-1" d="M17.17,50.2a4.85,4.85,0,0,0-.49-.29,4.13,4.13,0,0,0-5.28,1.16l-.05.06a2.07,2.07,0,0,0-.19.32c-.08.13-.16.25-.23.38A4.17,4.17,0,0,0,12.27,57a4.17,4.17,0,0,0,5.26-.3,2.59,2.59,0,0,0,.31-.35,2.11,2.11,0,0,0,.25-.27s0-.05,0-.06a4.18,4.18,0,0,0-.53-5.38,5.39,5.39,0,0,0-.43-.39"/><path class="cls-2" d="M35.53,57.74a17.64,17.64,0,0,1-2.81-.22c-.49-.08-1-.19-1.43-.3a.5.5,0,0,1-.07-.95,17.55,17.55,0,0,0,7.6-5.94,18,18,0,0,0,1.45-2.4l.09-.17c.07-.13.13-.26.19-.39s.08-.18.12-.27l.25-.58a.44.44,0,0,1,.16-.22,17.47,17.47,0,0,0,4.84-6.06.25.25,0,0,1,0-.07l.1-.24c.13-.28.26-.58.38-.88s.13-.32.19-.49l.06-.2c.11-.3.21-.6.29-.9l0-.1.5.06-.47-.16,0-.1c.1-.4.18-.81.26-1.21l.08-.35c.08-.49.15-1,.19-1.47l.51-.12-.5,0c0-.45.06-.91.06-1.37v-.25c0-.43,0-.86-.07-1.29l0-.27c0-.44-.1-.87-.18-1.31l0-.22c-.08-.45-.19-.9-.31-1.34a.45.45,0,0,1,0-.11.56.56,0,0,1,.2-.56.59.59,0,0,1,.33-.11.46.46,0,0,1,.22.06l.07.06.08.08a18.83,18.83,0,0,1,1.92,2.22c.3.42.6.88.91,1.4l.22.39c.2.37.4.74.58,1.12l.17.38c.19.43.36.86.51,1.3l.08.22a17.55,17.55,0,0,1,.76,3.28c.07.54.11,1.05.13,1.6v.22l-.5.2h.5s0,.54,0,.62a.78.78,0,0,1,0,.16v.18c0,.27,0,.49,0,.71a17.71,17.71,0,0,1-3.54,9.38.48.48,0,0,1-.39.19h0a.46.46,0,0,1-.38-.18,4.52,4.52,0,0,0-5.71-1.07,3.49,3.49,0,0,0-.43.28,3,3,0,0,0-.26.22l-.13.12a4.42,4.42,0,0,0-1.41,2.6A4.5,4.5,0,0,0,41.57,56a.47.47,0,0,1,.06.43.5.5,0,0,1-.31.31A17.56,17.56,0,0,1,35.53,57.74Z"/><path class="cls-3" d="M47.5,27.62h0l.06.06,0,0a17.37,17.37,0,0,1,1.86,2.16,14.41,14.41,0,0,1,.89,1.36l.21.38c.2.36.39.72.56,1.09.06.12.12.24.17.36.18.42.35.84.5,1.26,0,.07,0,.14.07.21a16.53,16.53,0,0,1,.74,3.2.11.11,0,0,0,0,.05q.09.75.12,1.5c0,.1,0,.2,0,.3v.28c0,.15,0,.28,0,.43h0c0,.11,0,.21,0,.31s0,.47,0,.7a17.22,17.22,0,0,1-3.44,9.11,5,5,0,0,0-3.88-1.83,4.91,4.91,0,0,0-2.45.65,3.88,3.88,0,0,0-.48.3,5.3,5.3,0,0,0-.43.38,5,5,0,0,0-.84,6.39,17,17,0,0,1-5.62,1A16.75,16.75,0,0,1,32.8,57a12.21,12.21,0,0,1-1.39-.29,17.92,17.92,0,0,0,7.81-6.1,18.91,18.91,0,0,0,1.5-2.47c.1-.19.2-.38.29-.58s.13-.3.19-.45,0-.11.07-.16.07-.18.11-.27l0,0a18.07,18.07,0,0,0,4.95-6.21h0c0-.06,0-.13.08-.19s0-.09,0-.13c.14-.3.27-.6.39-.91s.14-.34.2-.51a1.72,1.72,0,0,1,.07-.21c.1-.3.2-.61.29-.92l.06-.18a.56.56,0,0,1,0-.12v0c.11-.41.19-.82.27-1.23,0-.12.06-.24.08-.36.09-.5.16-1,.2-1.51a1,1,0,0,0,0-.17c0-.47.06-.93.06-1.4v-.27c0-.44,0-.88-.07-1.32,0-.09,0-.19,0-.28-.05-.45-.11-.9-.19-1.35a1.7,1.7,0,0,0,0-.22c-.08-.47-.2-.93-.32-1.39,0-.05,0-.11,0-.16m0-1a1,1,0,0,0-.59.19,1,1,0,0,0-.37,1.08c0,.07,0,.11,0,.16.13.47.23.89.31,1.31v.07l0,.14c.07.42.13.84.17,1.27l0,.17v.09q0,.63.06,1.26v.25c0,.45,0,.9,0,1.32v.17c0,.44-.1.92-.19,1.42a1,1,0,0,1,0,.15c0,.06,0,.12,0,.19-.08.44-.16.8-.26,1.16v0l0,.07,0,.06,0,.11c-.08.31-.18.6-.28.88l0,.13,0,.06c-.06.17-.12.32-.18.47-.12.31-.24.6-.37.88l0,.1a.69.69,0,0,0,0,.1.41.41,0,0,0-.05.09,17,17,0,0,1-4.68,5.87,1.34,1.34,0,0,0-.34.44l-.06.14,0,.12,0,0,0,.09-.07.18c0,.08-.07.17-.11.25l-.18.37-.09.18A18.27,18.27,0,0,1,38.41,50,17,17,0,0,1,31,55.81a1,1,0,0,0-.62,1,1,1,0,0,0,.76.9c.46.11.95.22,1.47.3a18.76,18.76,0,0,0,2.89.23,18,18,0,0,0,5.95-1,1,1,0,0,0,.62-.62,1,1,0,0,0-.11-.86A4.07,4.07,0,0,1,41.4,53a4,4,0,0,1,1.26-2.31l.13-.12.21-.19a4.44,4.44,0,0,1,.39-.24,4,4,0,0,1,5.07.95,1,1,0,0,0,.77.36h0A1,1,0,0,0,50,51a18.29,18.29,0,0,0,3.64-9.65c0-.22,0-.45,0-.69a.76.76,0,0,1,0-.16,1.8,1.8,0,0,0,0-.22V40s0-.1,0-.16v-.4a1.62,1.62,0,0,1,0-.22c0-.57-.07-1.09-.13-1.59v-.07a18.08,18.08,0,0,0-.78-3.37.88.88,0,0,0,0-.15l0-.07c-.15-.44-.33-.89-.52-1.33L52,32.26c-.18-.38-.37-.76-.6-1.15L51.35,31c-.05-.09-.1-.18-.16-.27a16.38,16.38,0,0,0-.94-1.44,18.17,18.17,0,0,0-2-2.28h0l-.07-.08-.15-.12a1,1,0,0,0-.56-.17Z"/><path class="cls-1" d="M35,6.71a5,5,0,0,1-4.43,4.69,4.08,4.08,0,0,1-1.14,0A5,5,0,0,1,25,6.71a17.37,17.37,0,0,0-8.13,5.35l-.44.55-.42.56a17.12,17.12,0,0,0-3.25,10A16.92,16.92,0,0,0,13,26.05v0a.28.28,0,0,1,0,.09.76.76,0,0,0,.06-.16,18,18,0,0,1,5.34-7.5l.28-.23.62-.47.71-.5.23-.15a18,18,0,0,1,8.88-2.83h0c.08-.06.17-.1.25-.15l.14-.09.43-.26.57-.29a18.73,18.73,0,0,1,2.66-1.12A17,17,0,0,1,34.93,12l.11,0c.51-.11,1-.19,1.54-.26l.26,0a13.37,13.37,0,0,1,1.4-.1h.51c.39,0,.77,0,1.16,0s.5,0,.75.06.63.07.94.12.57.1.86.15l.71.16A17.37,17.37,0,0,0,35,6.71"/><path class="cls-1" d="M58.79,23.15a4.17,4.17,0,0,0-4-2.88c-.16,0-.31,0-.47,0h0l-.45.08-.36.09-.07,0a4.15,4.15,0,0,0-2.72,4.66,3.48,3.48,0,0,0,.12.56,3.14,3.14,0,0,0,.23.53,4.08,4.08,0,0,0,.63,1,4.11,4.11,0,0,0,4.32,1.2h.07c.12,0,.22-.1.34-.15s.28-.11.41-.18a4.17,4.17,0,0,0,1.92-4.92"/><path class="cls-1" d="M36.46,24.44a1.45,1.45,0,0,0-.77.41l-3,3a.21.21,0,0,1-.18.08H27.63a.29.29,0,0,1-.22-.09l-3-3a1.33,1.33,0,1,0-1.93,1.83l4,4a.17.17,0,0,1,.07.1.2.2,0,0,1,0,.11V42.11a1.57,1.57,0,0,0,1,1.44c.13.05.27.07.4.11h.32l.24,0a1.55,1.55,0,0,0,1.12-1.22,1.16,1.16,0,0,0,0-.32V36.81h.88v5.27A1.53,1.53,0,0,0,31,43.24a1.41,1.41,0,0,0,.83.4l.08,0h.3l.06,0a1.41,1.41,0,0,0,.86-.42A1.55,1.55,0,0,0,33.58,42V30.85a.23.23,0,0,1,0-.12.2.2,0,0,1,.07-.1c1.3-1.3,2.6-2.61,3.91-3.9A1.36,1.36,0,0,0,38,25.45a1.32,1.32,0,0,0-1.51-1"/><path class="cls-1" d="M29.47,27.46a2.6,2.6,0,0,0,.56.06,2.78,2.78,0,0,0,.58-.06,3.09,3.09,0,0,0,0-6.08,2.62,2.62,0,0,0-.57-.06,3.66,3.66,0,0,0-.57.05,3.1,3.1,0,0,0,0,6.09"/></g></svg>