<svg id="Слой_1" data-name="Слой 1" xmlns="http://www.w3.org/2000/svg" xmlns:xlink="http://www.w3.org/1999/xlink" viewBox="0 0 60 60"><defs><style>.cls-1{fill:none;}.cls-2{clip-path:url(#clip-path);}.cls-3{fill:#cc2d61;}.cls-4{fill:#445776;}.cls-5{fill:#b9e5fb;}.cls-6{fill:#faa747;}</style><clipPath id="clip-path"><rect class="cls-1" x="0.29" y="0.43" width="59.71" height="59.71"/></clipPath></defs><g class="cls-2"><path class="cls-3" d="M43.22,9.65A.83.83,0,0,0,42.29,11c3.4,2.5,9.11,7.74,9.23,14.8a6.77,6.77,0,0,1-2,4.85,6.57,6.57,0,0,1-2,1.4c-.35,8.45-3.18,15.86-7.37,20.48a24.43,24.43,0,0,0,3-42.9"/><path class="cls-3" d="M45,32.63h-.13c-.22,0-.43,0-.64,0a6.63,6.63,0,0,1-5-3.19c.09,1.29.14,2.6.14,3.92,0,6.78-1.12,12.79-2.94,17a15.32,15.32,0,0,1-2,4.05c.72-.13,1.42-.29,2.11-.47.49-.14,1-.29,1.46-.46l.24-.08c4.71-4.2,8-11.95,8.46-20.95a6.68,6.68,0,0,1-1.67.25"/><path class="cls-3" d="M44.32,30.75a6,6,0,0,0,.61,0h.16a4.75,4.75,0,0,0-.16-9.49,4.65,4.65,0,0,0-.66.05,5.85,5.85,0,0,0-.75.16A4.75,4.75,0,0,0,40.18,26a4.91,4.91,0,0,0,.08.86,4.76,4.76,0,0,0,4.06,3.85"/><path class="cls-4" d="M23.82,50.29c-1.81-4.18-2.93-10.19-2.93-17,0-1.32.05-2.63.13-3.93a6.53,6.53,0,0,1-5,3.2c-.21,0-.43,0-.64,0h-.14a6.12,6.12,0,0,1-1.66-.25c.44,9,3.74,16.75,8.46,20.95l.23.08c.49.17,1,.32,1.47.46.69.18,1.39.34,2.1.47a15.32,15.32,0,0,1-2-4.05"/><path class="cls-4" d="M10.71,30.67a6.76,6.76,0,0,1-1.94-4.85C8.88,18.76,14.6,13.52,18,11a.81.81,0,0,0,.34-.69A.84.84,0,0,0,18,9.66a.86.86,0,0,0-.46-.14.83.83,0,0,0-.43.13,24.43,24.43,0,0,0,3,42.9c-4.18-4.62-7-12-7.37-20.48a6.4,6.4,0,0,1-2-1.4"/><path class="cls-4" d="M16,21.34a4.91,4.91,0,0,0-.67-.05,4.75,4.75,0,0,0-.16,9.49h.16c.21,0,.41,0,.62,0a4.74,4.74,0,0,0,4.12-4.48,1.79,1.79,0,0,0,0-.23,4.76,4.76,0,0,0-3.34-4.54,5.85,5.85,0,0,0-.75-.16"/><path class="cls-5" d="M30.14.43A29.86,29.86,0,1,0,60,30.29,29.85,29.85,0,0,0,30.14.43m1.37,57a11.77,11.77,0,0,1-2.74,0A27.19,27.19,0,0,1,29.53,3.1l.61,0,.62,0a27.19,27.19,0,0,1,.75,54.34"/><path class="cls-5" d="M40.14,11.56C38,7.67,35.3,5,32.24,4.14,35,6.91,37,15,37.54,25.25a2.46,2.46,0,0,1,1.35,1.26,3.62,3.62,0,0,1,0-.47,6.07,6.07,0,0,1,4.38-5.83,33.66,33.66,0,0,0-3-8.36l-.15-.29"/><path class="cls-5" d="M12,21a6,6,0,0,1,3.36-1,5.86,5.86,0,0,1,.94.08,35.8,35.8,0,0,1,2.2-6.79A22,22,0,0,0,12,21"/><path class="cls-5" d="M39.94,9.75A2.92,2.92,0,0,1,43.73,7.6a26.23,26.23,0,0,0-9.39-3.43,15.61,15.61,0,0,1,5.6,5.58"/><path class="cls-5" d="M41.8,13.26A36.53,36.53,0,0,1,44,20.05a5.64,5.64,0,0,1,.93-.08,6,6,0,0,1,3.36,1,22,22,0,0,0-6.49-7.74"/><path class="cls-5" d="M19.08,7.92a2.88,2.88,0,0,1,1.26,1.84A15.58,15.58,0,0,1,26,4.17,26.23,26.23,0,0,0,16.56,7.6a2.89,2.89,0,0,1,2.52.32"/><path class="cls-5" d="M20.14,11.57c0,.09-.09.17-.14.26a34.49,34.49,0,0,0-3,8.38A6.08,6.08,0,0,1,21.42,26a1.77,1.77,0,0,1,0,.23h.12a2.38,2.38,0,0,1,1.22-1C23.26,15,25.31,6.91,28,4.14c-3.06.85-5.8,3.53-7.9,7.43"/><path class="cls-5" d="M30.5,3.86v27a4.58,4.58,0,0,1,4,3,20,20,0,0,0-.33-6.25A1.91,1.91,0,0,1,34.55,26a2.68,2.68,0,0,1,2-.94h.23C36.18,12.69,33.3,4.51,30.5,3.86"/><path class="cls-5" d="M23.47,25.08h.2a2.7,2.7,0,0,1,2.07,1,1.82,1.82,0,0,1,.4,1.57,19.32,19.32,0,0,0-.28,6.16,4.6,4.6,0,0,1,3.93-2.94v-27c-2.81.65-5.68,8.83-6.32,21.22"/><path class="cls-6" d="M25,35.52a20,20,0,0,1,0-8.18.64.64,0,0,0-.16-.56,1.54,1.54,0,0,0-1.15-.52h-.26a1.4,1.4,0,0,0-.36.13,1.25,1.25,0,0,0-.36.28,1.09,1.09,0,0,0-.29.62s0,0,0,0a55.44,55.44,0,0,0-.32,6,47.1,47.1,0,0,0,2.14,14.62c.17.53.36,1,.55,1.5a19.12,19.12,0,0,0,1,2.17,12.65,12.65,0,0,0,1,1.48,4.78,4.78,0,0,0,3,2h0V40.44h0c-1.79-.11-4-1.1-4.83-4.91"/><path class="cls-6" d="M38,27.94c0-.2,0-.4-.05-.59a1.09,1.09,0,0,0-.15-.45.8.8,0,0,0-.15-.21,1.29,1.29,0,0,0-.37-.28,1.4,1.4,0,0,0-.36-.13l-.26,0a1.56,1.56,0,0,0-1.15.5.71.71,0,0,0-.17.59,20.92,20.92,0,0,1,.12,8.14c-.61,3.29-2.14,4.82-4.91,4.94h0V55.15h0a4.79,4.79,0,0,0,3-2,11.51,11.51,0,0,0,1-1.48,19.14,19.14,0,0,0,1-2.17c.2-.47.38-1,.56-1.49a47.14,47.14,0,0,0,2.13-14.63c0-1.82-.09-3.63-.26-5.38"/><path class="cls-6" d="M33.57,35.39A3.44,3.44,0,0,0,30.5,32h-.71a3.43,3.43,0,0,0,0,6.83l.35,0h0l.36,0a3.44,3.44,0,0,0,3.07-3.41"/></g></svg>