<svg xmlns="http://www.w3.org/2000/svg" viewBox="0 0 60 60"><defs><style>.cls-1{fill:none;stroke:#124882;stroke-linecap:round;stroke-linejoin:round;}</style></defs><g id="Слой_2" data-name="Слой 2"><path class="cls-1" d="M42.9,9.91a.84.84,0,0,0-.89,0,.81.81,0,0,0-.37.68.79.79,0,0,0,.33.68c3.39,2.5,9.1,7.74,9.22,14.79a6.8,6.8,0,0,1-1.94,4.85,6.57,6.57,0,0,1-2,1.4l-.85.31a6.67,6.67,0,0,1-1.67.24h-.13c-.22,0-.43,0-.64,0a6.61,6.61,0,0,1-5-3.19c.09,1.29.14,2.6.14,3.92,0,6.77-1.12,12.78-2.94,17a15.39,15.39,0,0,1-2,4c.71-.13,1.41-.29,2.1-.47.49-.14,1-.29,1.47-.46l.23-.08,1.94-.78a24.41,24.41,0,0,0,3-42.87Z"/><path class="cls-1" d="M23.52,50.52c-1.82-4.18-2.94-10.18-2.94-17,0-1.32.05-2.64.14-3.93a6.56,6.56,0,0,1-5,3.2c-.22,0-.43,0-.64,0h-.14a6.53,6.53,0,0,1-1.66-.24l-.86-.31a6.69,6.69,0,0,1-2-1.4,6.8,6.8,0,0,1-1.94-4.85c.12-7,5.83-12.29,9.22-14.79A.79.79,0,0,0,18,10.6a.81.81,0,0,0-.37-.68.84.84,0,0,0-.46-.13.82.82,0,0,0-.43.12,24.41,24.41,0,0,0,3,42.87l1.94.78.24.08c.48.17,1,.32,1.46.46.69.18,1.39.34,2.1.47A15.31,15.31,0,0,1,23.52,50.52Z"/><circle class="cls-1" cx="15.05" cy="26.31" r="4.6"/><circle class="cls-1" cx="44.61" cy="26.31" r="4.6"/><circle class="cls-1" cx="29.83" cy="35.63" r="3.43"/><circle class="cls-1" cx="30.14" cy="30.5" r="29.5"/><path class="cls-1" d="M46.86,32.46h0c-.39,8.66-3.37,16.18-7.7,20.61"/><path class="cls-1" d="M13.44,32.67c.44,8.86,3.59,16.49,8.11,20.82h0"/><path class="cls-1" d="M43.9,20.43c-2.21-9.79-7.54-16.7-13.76-16.7S18.6,10.64,16.39,20.43"/><path class="cls-1" d="M36.89,25.44c-.61-12.36-3.4-21.71-6.75-21.71S24,13.08,23.4,25.44"/><line class="cls-1" x1="30.14" y1="3.73" x2="30.14" y2="31.04"/><line class="cls-1" x1="30.14" y1="40.63" x2="30.14" y2="55.37"/><path class="cls-1" d="M37.64,28.19l-.06-.59a1.09,1.09,0,0,0-.15-.45.8.8,0,0,0-.15-.21,1.17,1.17,0,0,0-.37-.28,1.48,1.48,0,0,0-.35-.13l-.27,0a1.52,1.52,0,0,0-1.14.5.69.69,0,0,0-.18.59,20.73,20.73,0,0,1,.12,8.14c-.61,3.28-2.13,4.81-4.9,4.93h-.71c-1.79-.11-4-1.1-4.83-4.91a20.08,20.08,0,0,1,0-8.17.64.64,0,0,0-.16-.56,1.53,1.53,0,0,0-1.14-.52H23.1a1.48,1.48,0,0,0-.35.13,1.29,1.29,0,0,0-.37.28,1.15,1.15,0,0,0-.29.62s0,0,0,0a55.46,55.46,0,0,0-.31,6A47.09,47.09,0,0,0,23.9,48.18c.18.52.36,1,.55,1.5a19.79,19.79,0,0,0,1,2.16,12.65,12.65,0,0,0,1,1.48,4.78,4.78,0,0,0,3,2h.71a4.79,4.79,0,0,0,3-2,11.49,11.49,0,0,0,1-1.48,19.79,19.79,0,0,0,1-2.16c.19-.48.37-1,.55-1.49a47.16,47.16,0,0,0,2.13-14.62C37.89,31.74,37.8,29.94,37.64,28.19Z"/></g></svg>