<svg id="Слой_1" data-name="Слой 1" xmlns="http://www.w3.org/2000/svg" viewBox="0 0 60 60"><defs><style>.cls-1{fill:#f06047;}.cls-2{fill:#3f5071;}</style></defs><path class="cls-1" d="M59.25,5.48a7.63,7.63,0,0,0-4.31-4.2A8.47,8.47,0,0,0,51.86.7a5.35,5.35,0,0,0-1.39.18,6.09,6.09,0,0,1-1.21.22l-.44.23a7.46,7.46,0,0,0-2.64,1.61L30.59,18.53l0,0c-1,.92-1.93,1.92-2.89,2.89a1.71,1.71,0,0,0-.46,1.48,1.82,1.82,0,0,0,1.3,1.61,1.85,1.85,0,0,0,2-.49c.92-.9,1.82-1.82,2.73-2.72l.23-.21L42,29.64l.23-.25,0,0L44,27.65V51.48a7.48,7.48,0,0,0,.62,3,8.14,8.14,0,0,0,1.7,2.5,7.89,7.89,0,0,0,5.59,2.28,8.09,8.09,0,0,0,3.08-.6A8.38,8.38,0,0,0,57.53,57a8.14,8.14,0,0,0,1.7-2.5,7.49,7.49,0,0,0,.63-3v-43a7.64,7.64,0,0,0-.61-3"/><path class="cls-2" d="M36.08,25.15c-.23-.24-.46-.46-.7-.69l-.68-.66c-.41-.41-.82-.81-1.29-1.25a1.7,1.7,0,0,1-.17.23c-.66.67-1.32,1.34-2,2a2.93,2.93,0,1,1-4.09-4.19l2-2,.18-.21-.16-.12,0,0h0L13.73,2.94A8.19,8.19,0,0,0,8.14.7,8.38,8.38,0,0,0,5,1.28,7.67,7.67,0,0,0,.75,5.48a7.64,7.64,0,0,0-.61,3v43a7.49,7.49,0,0,0,.63,3A8.14,8.14,0,0,0,2.47,57,7.65,7.65,0,0,0,5,58.69a7.78,7.78,0,0,0,3.06.61,7.92,7.92,0,0,0,3.09-.61A7.78,7.78,0,0,0,13.69,57a8.11,8.11,0,0,0,1.69-2.5,7.49,7.49,0,0,0,.63-3V27.56l2.75,2.71h0L20.47,32l2.1-2a2.19,2.19,0,0,1,3.62,1,7.17,7.17,0,0,1,.12.78,2,2,0,0,1,1.86.77c1.77,1.81,3.56,3.59,5.35,5.38a2.24,2.24,0,0,0,.46.35,1.31,1.31,0,0,0,1.69-.46,1.48,1.48,0,0,0,0-1.9c-.2-.21-.4-.4-.61-.6L29.81,30c-.27-.27-.29-.53,0-.77a.49.49,0,0,1,.75.06l.89.89,4.92,4.92a1.44,1.44,0,0,0,1.4.41,1.38,1.38,0,0,0,1.07-1,1.47,1.47,0,0,0-.43-1.5L33.6,28.22c-.38-.39-.77-.77-1.14-1.17a.47.47,0,0,1,.09-.66.48.48,0,0,1,.65,0c.92.93,1.85,1.86,2.78,2.78l3.11,3.12a1.47,1.47,0,0,0,2.14,0,1.46,1.46,0,0,0,0-2.06c-1.69-1.7-3.4-3.4-5.1-5.09"/><path class="cls-2" d="M20.48,32l0,0h0"/><path class="cls-1" d="M27.57,33.44a1.22,1.22,0,0,0-1.13-.75,1,1,0,0,0-.75.29c-.63.62-1.26,1.24-1.87,1.88a1.19,1.19,0,0,0,1.7,1.65c.61-.6,1.21-1.21,1.81-1.82a1.05,1.05,0,0,0,.24-1.25"/><path class="cls-1" d="M29.77,37a1.11,1.11,0,0,0-.11-1.6,1.12,1.12,0,0,0-1.59,0c-.63.61-1.25,1.22-1.85,1.85a1.09,1.09,0,0,0-.2,1.29,1.13,1.13,0,0,0,1.07.7l0,.06a3.21,3.21,0,0,0,.72-.35c.66-.62,1.31-1.26,1.92-1.92"/><path class="cls-1" d="M31.68,37.57a1,1,0,0,0-1.23.2c-.64.62-1.27,1.24-1.88,1.89a1.1,1.1,0,0,0,.07,1.58,1.12,1.12,0,0,0,1.61.07c.64-.61,1.27-1.24,1.88-1.89a2.35,2.35,0,0,0,.31-.57,1.31,1.31,0,0,0-.76-1.28"/><path class="cls-1" d="M25,32.26a1.19,1.19,0,0,0-.13-1.66,1.07,1.07,0,0,0-1.57,0q-.91.89-1.8,1.8a1.11,1.11,0,0,0-.23,1.3,1.24,1.24,0,0,0,1.24.72,2.1,2.1,0,0,0,.59-.29c.65-.61,1.29-1.24,1.9-1.9"/></svg>