<svg xmlns="http://www.w3.org/2000/svg" viewBox="0 0 60 60"><defs><style>.cls-1{fill:none;stroke:#124882;stroke-linecap:round;stroke-linejoin:round;}</style></defs><g id="Слой_2" data-name="Слой 2"><path class="cls-1" d="M58.41,6.19a7.64,7.64,0,0,0-1.67-2.48,7.52,7.52,0,0,0-2.52-1.6,8,8,0,0,0-3-.57,5.11,5.11,0,0,0-1.35.18,6.26,6.26,0,0,1-1.17.21l-.43.22a7.3,7.3,0,0,0-2.56,1.56L30.57,18.86l0,0c-1,.89-1.87,1.86-2.8,2.8a1.68,1.68,0,0,0-.46,1.45,1.88,1.88,0,0,0,3.23,1.08l2.64-2.65.23-.2c2.73,2.77,5.45,5.51,8.19,8.28l.22-.24,0,0,1.67-1.66V50.86a7.35,7.35,0,0,0,.61,3,7.92,7.92,0,0,0,1.65,2.43,7.39,7.39,0,0,0,2.46,1.63,7.64,7.64,0,0,0,3,.59,8,8,0,0,0,5.51-2.22,7.58,7.58,0,0,0,1.65-2.43,7.18,7.18,0,0,0,.61-3V9.14a7.54,7.54,0,0,0-.59-2.95"/><path class="cls-1" d="M35.91,25.28l-.68-.66L34.57,24l-1.26-1.21a1.6,1.6,0,0,1-.16.23c-.64.65-1.29,1.3-1.94,1.94a2.84,2.84,0,1,1-4-4.07l2-1.95.17-.21-.15-.11,0,0h0L14.2,3.71a8,8,0,0,0-8.45-1.6,7.6,7.6,0,0,0-2.49,1.6A7.64,7.64,0,0,0,1.59,6.19a7.51,7.51,0,0,0-.59,3V50.86a7.18,7.18,0,0,0,.61,3,7.58,7.58,0,0,0,1.65,2.43,7.35,7.35,0,0,0,2.45,1.63,7.68,7.68,0,0,0,3,.59,7.83,7.83,0,0,0,3-.59,7.24,7.24,0,0,0,2.47-1.63,7.58,7.58,0,0,0,1.65-2.43,7.18,7.18,0,0,0,.61-3V27.63l2.67,2.63h0l1.66,1.64,2-2a2.12,2.12,0,0,1,3.52,1,7.28,7.28,0,0,1,.11.76,2,2,0,0,1,1.82.75c1.71,1.76,3.45,3.49,5.19,5.22a1.79,1.79,0,0,0,.44.34,1.27,1.27,0,0,0,1.64-.44,1.42,1.42,0,0,0,0-1.84c-.19-.21-.39-.4-.59-.59L29.81,30c-.26-.26-.27-.52,0-.74s.47-.2.72.05l.87.87,4.77,4.77a1.39,1.39,0,0,0,1.37.4,1.33,1.33,0,0,0,1-1,1.4,1.4,0,0,0-.42-1.45L33.5,28.27c-.37-.37-.75-.75-1.11-1.13a.46.46,0,0,1,.09-.65.45.45,0,0,1,.63,0l2.69,2.7,3,3a1.43,1.43,0,1,0,2-2l-5-4.95"/><path class="cls-1" d="M20.75,31.91h0c.05,0,0,0,0,0"/><path class="cls-1" d="M27.64,33.34a1.19,1.19,0,0,0-1.09-.73,1,1,0,0,0-.74.29c-.61.6-1.22,1.2-1.81,1.82a1.15,1.15,0,0,0,1.64,1.6c.6-.58,1.19-1.17,1.77-1.76a1,1,0,0,0,.23-1.22"/><path class="cls-1" d="M29.78,36.81a1.15,1.15,0,0,0-1.66-1.58c-.61.59-1.21,1.18-1.8,1.8a1.06,1.06,0,0,0-.19,1.24,1.08,1.08,0,0,0,1,.68l0,.06a2.53,2.53,0,0,0,.7-.34c.65-.6,1.27-1.22,1.87-1.86"/><path class="cls-1" d="M31.64,37.35a1,1,0,0,0-1.2.2c-.62.6-1.24,1.21-1.83,1.83A1.15,1.15,0,0,0,30.24,41c.62-.6,1.24-1.21,1.83-1.84a2.23,2.23,0,0,0,.3-.56,1.27,1.27,0,0,0-.73-1.24"/><path class="cls-1" d="M25.12,32.2A1.16,1.16,0,0,0,25,30.59a1.05,1.05,0,0,0-1.53,0c-.59.57-1.17,1.16-1.74,1.75a1.08,1.08,0,0,0-.23,1.26,1.2,1.2,0,0,0,1.2.7,1.56,1.56,0,0,0,.57-.28c.64-.59,1.26-1.21,1.86-1.84"/></g></svg>