<svg xmlns="http://www.w3.org/2000/svg" viewBox="0 0 60 60"><defs><style>.cls-1{fill:none;stroke:#124882;stroke-linecap:round;stroke-linejoin:round;}</style></defs><g id="Слой_2" data-name="Слой 2"><path class="cls-1" d="M30.09,1,4.4,8V30C4.4,49.48,24,59,24,59a32.25,32.25,0,0,0-3.31-5.7c-2.39-3.4-14.54-19-11.48-21.09,5.18-3.49,19.59,19.23,31,10.12,9.61-7.65,7.61-25.8,11.39-25.77,2.41,0,2.3,8.28,1.62,16.7s-5.79,15.19-7.32,20c4.09-4.85,9.44-9.78,9.44-20.15V7.55Zm1.7,37.16A7.23,7.23,0,1,1,39,30.94a7.22,7.22,0,0,1-7.23,7.22"/></g></svg>