<svg xmlns="http://www.w3.org/2000/svg" xmlns:xlink="http://www.w3.org/1999/xlink" viewBox="0 0 60 60"><defs><style>.cls-1{fill:none;stroke:#124882;stroke-linecap:round;stroke-linejoin:round;}.cls-2{clip-path:url(#clip-path);}.cls-3{clip-path:url(#clip-path-2);}.cls-4{fill:#124882;}</style><clipPath id="clip-path"><path class="cls-1" d="M37.62,10.07a9.79,9.79,0,0,1-2.74,2.43,4.41,4.41,0,0,1-2.27.63c-1.72,0-3.43,0-5.14,0a4.28,4.28,0,0,1-2.59-.75A9.81,9.81,0,0,1,23.18,11c-1-1.12-2-2.3-2.94-3.47a2.09,2.09,0,0,0-2.12-.9A2,2,0,0,0,17,9.85c1,1.26,2,2.48,3.07,3.67s2.22,2.36,3.33,3.54a4.35,4.35,0,0,1,1.18,3.17c-.05,5.17,0,10.33,0,15.49a6.91,6.91,0,0,0,0,1,2,2,0,0,0,3.13,1.42,2.24,2.24,0,0,0,1-2q0-4,0-8.08a6.77,6.77,0,0,1,0-.78c0-.09.1-.24.16-.24H31.2v.5c0,2.93,0,5.86,0,8.79a2,2,0,0,0,3,1.93,2.28,2.28,0,0,0,1.15-2.17c0-5.43,0-10.87,0-16.31a3.11,3.11,0,0,1,.69-2.11c.61-.74,1.23-1.47,1.89-2.15a61.17,61.17,0,0,0,5-5.67,2.09,2.09,0,0,0-.31-2.94,2,2,0,0,0-2.81.47c-.73.9-1.48,1.79-2.22,2.69Z"/></clipPath><clipPath id="clip-path-2"><path class="cls-1" d="M30,11.55a4.65,4.65,0,1,0-4.63-4.69A4.65,4.65,0,0,0,30,11.55Z"/></clipPath></defs><g id="Слой_2" data-name="Слой 2"><g class="cls-2"><rect class="cls-1" x="16.09" y="6.23" width="27.59" height="32.83"/></g><path class="cls-1" d="M37.62,10.07a9.79,9.79,0,0,1-2.74,2.43,4.41,4.41,0,0,1-2.27.63c-1.72,0-3.43,0-5.14,0a4.28,4.28,0,0,1-2.59-.75A9.81,9.81,0,0,1,23.18,11c-1-1.12-2-2.3-2.94-3.47a2.09,2.09,0,0,0-2.12-.9A2,2,0,0,0,17,9.85c1,1.26,2,2.48,3.07,3.67s2.22,2.36,3.33,3.54a4.35,4.35,0,0,1,1.18,3.17c-.05,5.17,0,10.33,0,15.49a6.91,6.91,0,0,0,0,1,2,2,0,0,0,3.13,1.42,2.24,2.24,0,0,0,1-2q0-4,0-8.08a6.77,6.77,0,0,1,0-.78c0-.09.1-.24.16-.24H31.2v.5c0,2.93,0,5.86,0,8.79a2,2,0,0,0,3,1.93,2.28,2.28,0,0,0,1.15-2.17c0-5.43,0-10.87,0-16.31a3.11,3.11,0,0,1,.69-2.11c.61-.74,1.23-1.47,1.89-2.15a61.17,61.17,0,0,0,5-5.67,2.09,2.09,0,0,0-.31-2.94,2,2,0,0,0-2.81.47c-.73.9-1.48,1.79-2.22,2.69Z"/><g class="cls-3"><rect class="cls-1" x="25.3" y="2.21" width="9.36" height="9.36"/></g><path class="cls-1" d="M30,11.55a4.65,4.65,0,1,0-4.63-4.69A4.65,4.65,0,0,0,30,11.55Z"/><path class="cls-4" d="M5.59,10.23a1.45,1.45,0,0,1,.94.44A5.85,5.85,0,0,1,7.64,12a12.46,12.46,0,0,1,1,2.13A9.23,9.23,0,0,0,9.53,16a4,4,0,0,1,.63,2.29c-.05,2.49-.23,5-.36,7.48,0,0-.07.11-.11.22-.4-.35-.76-.71-1.14-1a3.62,3.62,0,0,0-2.29-.88,3,3,0,0,0-1.69.52,3.22,3.22,0,0,0-1.13,3.78,7.8,7.8,0,0,0,.89,1.69c2.47,3.76,5,7.5,7.41,11.26.42.67.66,1.47,1,2.18a11.35,11.35,0,0,0,1.09,1.74,1.18,1.18,0,0,0,.77.33.32.32,0,0,0,.14,0c.45-.15.31-.6.11-1-.84-1.55-1.6-3.16-2.55-4.65C10,36.31,7.53,32.77,5.17,29.16a4.59,4.59,0,0,1-.69-2,1.7,1.7,0,0,1,1.71-1.85,2,2,0,0,1,.63.11,3.46,3.46,0,0,1,1.49,1c2.18,2.58,4.36,5.16,6.45,7.79a33.77,33.77,0,0,0,6.52,6.67c4.68,3.34,6.3,8.1,5.86,13.66-.07,1.07-.38,2.1-.4,3.16v.09A32,32,0,0,1,9.36,50.33s0,0,0,0c-.91-.93-1.87-1.85-2.85-2.71a32.05,32.05,0,0,1-5.18-7.64A74.73,74.73,0,0,1,1.39,26,66.38,66.38,0,0,1,3.08,15.1c.27-1.07.62-2.14,1-3.18A4.29,4.29,0,0,1,4.51,11a1.34,1.34,0,0,1,1.08-.75m0-1a2.28,2.28,0,0,0-1.93,1.21,6.06,6.06,0,0,0-.55,1.16c-.37,1.09-.72,2.16-1,3.26a65.58,65.58,0,0,0-1.72,11A75.46,75.46,0,0,0,.28,40a1.33,1.33,0,0,0,.1.34,32.93,32.93,0,0,0,5.34,7.87l.08.07c1,.84,1.87,1.73,2.76,2.63a1.37,1.37,0,0,0,.17.17,33,33,0,0,0,17.9,7.6h.11a1,1,0,0,0,.66-.25,1,1,0,0,0,.34-.75v-.09a9.94,9.94,0,0,1,.19-1.54,14.55,14.55,0,0,0,.2-1.55c.51-6.31-1.6-11.21-6.27-14.54a33,33,0,0,1-6.31-6.48c-1.78-2.23-3.63-4.45-5.46-6.61a1,1,0,0,0,.53-.55,1,1,0,0,0,.18-.55c0-.61.07-1.23.11-1.85.1-1.85.21-3.76.25-5.65a5,5,0,0,0-.8-2.87,7.89,7.89,0,0,1-.8-1.66,13.51,13.51,0,0,0-1.06-2.3A6.5,6.5,0,0,0,7.2,9.93a2.4,2.4,0,0,0-1.61-.7Z"/><path class="cls-4" d="M54.44,10.23c.56,0,1.05.47,1.38,1.38a34.51,34.51,0,0,1,1.38,4.58,86.18,86.18,0,0,1,1.67,22.56c0,.36,0,.69-.07,1a31.5,31.5,0,0,1-5.52,8,.28.28,0,0,1-.13.11c-.76.69-1.49,1.38-2.2,2.14a31.79,31.79,0,0,1-17.74,7.65c-.09-1-.24-2-.33-3C32.41,49,34,44.21,38.71,40.8a33.48,33.48,0,0,0,6.74-6.92c2-2.49,4-4.92,6-7.34a4.55,4.55,0,0,1,1.34-1.05,2.34,2.34,0,0,1,1-.22,1.76,1.76,0,0,1,1.73,2.16,4.89,4.89,0,0,1-.87,2c-2.67,4.12-5.41,8.19-8.08,12.28a21.18,21.18,0,0,0-1.46,3c-.12.22,0,.57.08.86.32-.06.72-.06.89-.24a4.11,4.11,0,0,0,1-1.36c.89-2.6,2.52-4.76,4-7s3.16-4.67,4.77-7a4.45,4.45,0,0,0,1-3.09,3,3,0,0,0-3-2.76,3.43,3.43,0,0,0-2.06.71c-.47.36-.87.78-1.36,1.2,0-.18-.09-.31-.11-.44-.13-2.25-.31-4.48-.36-6.72a4.6,4.6,0,0,1,.51-2.58,20,20,0,0,0,1.34-2.92A11.36,11.36,0,0,1,53,11.14a2,2,0,0,1,1.45-.91m0-1h0a2.88,2.88,0,0,0-2.22,1.28,12.16,12.16,0,0,0-1.43,2.36c-.2.41-.35.8-.5,1.18a7.32,7.32,0,0,1-.77,1.62,5.26,5.26,0,0,0-.69,3.17c0,1.7.15,3.41.25,5.06,0,.56.08,1.13.11,1.7,0,0,0,.07,0,.1a2.83,2.83,0,0,0,.09.37l0,.15a1,1,0,0,0,.56.67c-1.75,2.08-3.53,4.22-5.23,6.37A32.83,32.83,0,0,1,38.13,40c-4.68,3.36-6.78,8.33-6.25,14.78.05.54.11,1.06.17,1.59s.12,1,.16,1.44a1,1,0,0,0,.36.68,1,1,0,0,0,.64.23h.1a32.66,32.66,0,0,0,18.29-7.9l.07-.07c.69-.73,1.4-1.39,2.06-2A1,1,0,0,0,54,48.5a32.63,32.63,0,0,0,5.7-8.27.93.93,0,0,0,.1-.37l0-.47,0-.57A88.4,88.4,0,0,0,58.18,16a34.35,34.35,0,0,0-1.42-4.72c-.65-1.76-1.73-2-2.32-2Z"/></g></svg>