<svg xmlns="http://www.w3.org/2000/svg" viewBox="0 0 60 60"><defs><style>.cls-1{fill:none;stroke:#124882;stroke-linecap:round;stroke-linejoin:round;}</style></defs><g id="Слой_2" data-name="Слой 2"><path class="cls-1" d="M25.65,58.55h.65c10.2.53,19.59-8.75,22-18.09,2.81-11-2.95-23.56-13.58-28l-.77-.3a8.58,8.58,0,0,0-1-.38,1.09,1.09,0,0,1-.81-.85C31.22,7.59,27.32,5.3,24,5.84a7.74,7.74,0,0,0-4.2,2,8,8,0,0,0-2.09,3.55c-1,.39-1.94.72-2.88,1.16a24.45,24.45,0,0,0-12,12.15,26.68,26.68,0,0,0-1.72,5.6c-.11.5-.13,1-.2,1.52,0,.22-.09.44-.15.76a27.41,27.41,0,0,0-.1-3.72A29,29,0,0,1,9.17,9.57,29.46,29.46,0,0,1,27.71,1.23a28.64,28.64,0,0,1,7.84.51,26.17,26.17,0,0,1,3.77,1.09,23.86,23.86,0,0,1,3.45,1.62c-1.69,4-1.31,7.72,1.58,11.07a8.65,8.65,0,0,0,3.34,2.35,10,10,0,0,0,4,.79,10.89,10.89,0,0,0,4-.95c.19.36.39.7.54,1.06a30.17,30.17,0,0,1-.15,22.81A29.19,29.19,0,0,1,30.79,59c-.58,0-1.17,0-1.75,0-.93,0-1.85-.08-2.78-.12a.68.68,0,0,1-.61-.33"/><path class="cls-1" d="M10.2,50.06c-.41-.38-.85-.74-1.22-1.15a21.36,21.36,0,0,1,6.4-33.46c.59-.3,1.2-.54,1.81-.8a1.59,1.59,0,0,1,.34-.06c1,3.84,3.45,6.05,7.47,6.2a6.92,6.92,0,0,0,4.8-1.72,8,8,0,0,0,2.61-4.39,18,18,0,0,1,5.21,2.84,20.7,20.7,0,0,1,7.62,10.85,21,21,0,0,1-6.43,22.24c.18-.28.36-.58.57-.86,4.22-5.45,3.95-13.66.47-19.41a17,17,0,0,0-2.51-3.22,16.8,16.8,0,0,0-3.47-2.69,18.86,18.86,0,0,0-3.22-1.51A14.05,14.05,0,0,0,27,22.08C26.08,22,25.19,22,24.31,22a14.74,14.74,0,0,0-3.31.38,18.44,18.44,0,0,0-5.38,2.13,7.61,7.61,0,0,0-.75.51.68.68,0,0,1-.74.06,5.91,5.91,0,0,0-2.63-.57,6.1,6.1,0,0,0-4.25,1.82,6,6,0,0,0-1.75,5,5.81,5.81,0,0,0,1.43,3.27,2.55,2.55,0,0,0,.26.3.9.9,0,0,1,.26,1.11,16.83,16.83,0,0,0-.38,4.9A16.21,16.21,0,0,0,9.34,48.4c.26.43.54.85.81,1.29a1.42,1.42,0,0,1,.11.31l-.06.06"/><path class="cls-1" d="M59.33,8.94c.24,4.08-3.74,7.87-7.84,7.83a7.91,7.91,0,0,1-7.86-8,7.85,7.85,0,0,1,15.7.18"/><path class="cls-1" d="M27.22,54.17a4.66,4.66,0,0,0-1.09.17c-.43,0-.86.08-1.3.09A14.8,14.8,0,0,1,9.76,39.12,16,16,0,0,1,10,36.55c.4.07.69.15,1,.17a6.16,6.16,0,0,0,6.43-4.37,6,6,0,0,0-.1-3.89,6.73,6.73,0,0,0-.51-1c-.21-.39-.21-.43.16-.66a13.43,13.43,0,0,1,4-1.69,14.87,14.87,0,0,1,17.17,8.45,27.64,27.64,0,0,1,1,2.83.48.48,0,0,1-.06.37c-.08-.15-.18-.29-.25-.44A12.29,12.29,0,0,0,35.4,32a12.39,12.39,0,0,0-15.66,19.2A12.29,12.29,0,0,0,24,53.5a30.37,30.37,0,0,0,3.24.67"/><path class="cls-1" d="M31,13.28a6,6,0,1,1-12,0,5.92,5.92,0,0,1,6.09-6c3.46,0,5.79,2.4,6,6"/><path class="cls-1" d="M11.65,25.82A4.82,4.82,0,0,1,16.39,31a4.91,4.91,0,0,1-5.15,4.36,4.89,4.89,0,0,1-4.43-5.2,4.83,4.83,0,0,1,4.84-4.36"/><path class="cls-1" d="M10.26,50l.28.26-.11.1-.23-.3.06-.06"/></g></svg>