<svg id="Слой_1" data-name="Слой 1" xmlns="http://www.w3.org/2000/svg" viewBox="0 0 60 60"><defs><style>.cls-1{fill:#16318a;}.cls-2{fill:#f49b30;}</style></defs><path class="cls-1" d="M31.63,50.55S42.27,44.08,59.35,53c0-14.47.65-32.66.65-32.66H56.4v3.6l1.19,0L57,48a28.35,28.35,0,0,0-25.38,2.6"/><path class="cls-2" d="M28.37,50.55S17.73,44.08.65,53C.65,38.49,0,20.3,0,20.3H3.6v3.6l-1.19,0L3,48a28.37,28.37,0,0,1,25.38,2.6"/><path class="cls-1" d="M22.86,28.23V39.94a41.89,41.89,0,0,0-7.16-3V33.55Z"/><path class="cls-1" d="M44.61,6.4V36.3a29.31,29.31,0,0,0-7.16,3.49v-28l5.78-4.33Z"/><path class="cls-1" d="M33.73,17.85V42.2A26,26,0,0,0,30,46.15a16.63,16.63,0,0,0-3.45-3.6V23.21l4.75-3.52Z"/><path class="cls-1" d="M54.64,10.77H52a22.11,22.11,0,0,0-5.06.84v2.6A20.87,20.87,0,0,1,52,13.56l.53,24.85s-16.08-.69-22.63,11.68c0,0,0,.08.08.11A24.66,24.66,0,0,1,55,43.43c0-14.48-.31-32.66-.31-32.66"/><path class="cls-2" d="M7.31,38.37l.54-24.85a18.2,18.2,0,0,1,3.48.35,25.83,25.83,0,0,1,9.23,3.48c.61.38,1.34.92,2.3,1.61v-2a5.52,5.52,0,0,0-.5-.42c-.34-.31-.69-.58-1-.84a0,0,0,0,1,0,0l0,0a24.39,24.39,0,0,0-10-4.4,18.21,18.21,0,0,0-3.33-.42H5.25S5,29,5,43.43A24.68,24.68,0,0,1,29.9,50.2s0-.07.08-.11C23.39,37.72,7.31,38.37,7.31,38.37"/></svg>