<svg xmlns="http://www.w3.org/2000/svg" viewBox="0 0 60 60"><defs><style>.cls-1{fill:none;stroke:#124882;stroke-linecap:round;stroke-linejoin:round;}</style></defs><g id="Слой_2" data-name="Слой 2"><path class="cls-1" d="M31.57,49.85s10.29-6.25,26.8,2.33c0-14,.63-31.57.63-31.57H55.52v3.48l1.15,0-.56,23.21a27.43,27.43,0,0,0-24.54,2.51"/><path class="cls-1" d="M28.43,49.85S18.14,43.6,1.63,52.18c0-14-.63-31.57-.63-31.57H4.48v3.48l-1.15,0,.56,23.21a27.46,27.46,0,0,1,24.54,2.51"/><path class="cls-1" d="M23.1,28.27V39.6a41.54,41.54,0,0,0-6.92-2.89V33.42Z"/><path class="cls-1" d="M44.12,7.18v28.9a28.26,28.26,0,0,0-6.92,3.37V12.36l5.59-4.18Z"/><path class="cls-1" d="M33.61,18.24V41.78A24.87,24.87,0,0,0,30,45.6a16.2,16.2,0,0,0-3.33-3.48V23.43L31.24,20Z"/><path class="cls-1" d="M53.82,11.4H51.23a21.4,21.4,0,0,0-4.89.81v2.52a19.94,19.94,0,0,1,5-.63l.52,24s-15.55-.67-21.88,11.29c0,0,0,.07.08.11A23.81,23.81,0,0,1,54.11,43c0-14-.29-31.57-.29-31.57"/><path class="cls-1" d="M8.07,38.08l.52-24a17.88,17.88,0,0,1,3.37.33,25.14,25.14,0,0,1,8.92,3.37c.59.37,1.29.89,2.22,1.56v-2c-.15-.15-.3-.26-.48-.41-.34-.3-.67-.56-1-.82,0,0,0,0,0,0l0,0a23.71,23.71,0,0,0-9.66-4.26,17.84,17.84,0,0,0-3.22-.4H6.07S5.81,29,5.81,43a23.86,23.86,0,0,1,24.1,6.55s0-.07.07-.11c-6.36-12-21.91-11.33-21.91-11.33"/></g></svg>